<svg width="494" height="190" viewBox="0 0 494 190" fill="none" xmlns="http://www.w3.org/2000/svg">
<path d="M4.06344 10.045C3.67344 9.99167 3.30677 9.885 2.96344 9.725C2.62344 9.565 2.33344 9.36667 2.09344 9.13L2.47344 8.565C2.50677 8.515 2.5501 8.475 2.60344 8.445C2.6601 8.41167 2.71844 8.395 2.77844 8.395C2.85177 8.395 2.9301 8.42167 3.01344 8.475C3.09677 8.525 3.19177 8.585 3.29844 8.655C3.4051 8.725 3.52677 8.795 3.66344 8.865C3.8001 8.935 3.96177 8.98667 4.14844 9.02L4.33844 6.78C4.10177 6.71333 3.86677 6.635 3.63344 6.545C3.40344 6.455 3.1951 6.33667 3.00844 6.19C2.8251 6.04 2.67677 5.85167 2.56344 5.625C2.4501 5.39833 2.39344 5.115 2.39344 4.775C2.39344 4.52167 2.44344 4.275 2.54344 4.035C2.64677 3.79167 2.7951 3.575 2.98844 3.385C3.18177 3.195 3.4201 3.03833 3.70344 2.915C3.98677 2.79167 4.31177 2.72167 4.67844 2.705L4.73344 2.075C4.7401 1.995 4.77344 1.92333 4.83344 1.86C4.89344 1.79667 4.97177 1.765 5.06844 1.765H5.52344L5.43844 2.75C5.79177 2.80667 6.09677 2.90667 6.35344 3.05C6.6101 3.19333 6.83344 3.355 7.02344 3.535L6.72344 3.99C6.67677 4.05667 6.6301 4.10667 6.58344 4.14C6.53677 4.17333 6.4801 4.19 6.41344 4.19C6.36344 4.19 6.30344 4.175 6.23344 4.145C6.16677 4.11167 6.08844 4.07333 5.99844 4.03C5.91177 3.98333 5.8151 3.93667 5.70844 3.89C5.60177 3.84333 5.48344 3.805 5.35344 3.775L5.17844 5.845C5.41844 5.91833 5.6551 6 5.88844 6.09C6.1251 6.17667 6.33677 6.29 6.52344 6.43C6.71344 6.57 6.86677 6.745 6.98344 6.955C7.1001 7.16167 7.15844 7.42167 7.15844 7.735C7.15844 8.045 7.10677 8.33667 7.00344 8.61C6.9001 8.88 6.74844 9.12 6.54844 9.33C6.35177 9.53667 6.10844 9.705 5.81844 9.835C5.52844 9.965 5.19677 10.0433 4.82344 10.07L4.76344 10.805C4.75677 10.8817 4.72344 10.9517 4.66344 11.015C4.60344 11.0817 4.5251 11.115 4.42844 11.115H3.97344L4.06344 10.045ZM5.98844 7.925C5.98844 7.79833 5.9651 7.68833 5.91844 7.595C5.8751 7.49833 5.81177 7.41333 5.72844 7.34C5.64844 7.26667 5.55344 7.20333 5.44344 7.15C5.33344 7.09667 5.21344 7.04833 5.08344 7.005L4.91344 9.035C5.26677 8.98833 5.53344 8.87 5.71344 8.68C5.89677 8.48667 5.98844 8.235 5.98844 7.925ZM3.55844 4.655C3.55844 4.78167 3.5801 4.89333 3.62344 4.99C3.66677 5.08667 3.72677 5.17333 3.80344 5.25C3.88344 5.32333 3.97677 5.39 4.08344 5.45C4.1901 5.50667 4.30677 5.55833 4.43344 5.605L4.58844 3.755C4.4051 3.77833 4.24844 3.81833 4.11844 3.875C3.98844 3.92833 3.88177 3.995 3.79844 4.075C3.7151 4.155 3.65344 4.245 3.61344 4.345C3.57677 4.44167 3.55844 4.545 3.55844 4.655ZM9.09422 9.075H10.5592V4.86C10.5592 4.69667 10.5642 4.525 10.5742 4.345L9.53422 5.215C9.49088 5.25167 9.44588 5.27667 9.39922 5.29C9.35588 5.30333 9.31255 5.31 9.26922 5.31C9.20255 5.31 9.14088 5.29667 9.08422 5.27C9.03088 5.24 8.99088 5.20667 8.96422 5.17L8.57422 4.635L10.7792 2.76H11.7942V9.075H13.0942V10H9.09422V9.075ZM19.3 6.385C19.3 7.015 19.2317 7.56333 19.095 8.03C18.9617 8.49333 18.775 8.87667 18.535 9.18C18.2983 9.48333 18.0167 9.71 17.69 9.86C17.3667 10.0067 17.0167 10.08 16.64 10.08C16.2633 10.08 15.9133 10.0067 15.59 9.86C15.27 9.71 14.9917 9.48333 14.755 9.18C14.5183 8.87667 14.3333 8.49333 14.2 8.03C14.0667 7.56333 14 7.015 14 6.385C14 5.75167 14.0667 5.20333 14.2 4.74C14.3333 4.27667 14.5183 3.89333 14.755 3.59C14.9917 3.28667 15.27 3.06167 15.59 2.915C15.9133 2.765 16.2633 2.69 16.64 2.69C17.0167 2.69 17.3667 2.765 17.69 2.915C18.0167 3.06167 18.2983 3.28667 18.535 3.59C18.775 3.89333 18.9617 4.27667 19.095 4.74C19.2317 5.20333 19.3 5.75167 19.3 6.385ZM18.025 6.385C18.025 5.86167 17.9867 5.42833 17.91 5.085C17.8333 4.74167 17.73 4.46833 17.6 4.265C17.4733 4.06167 17.3267 3.92 17.16 3.84C16.9933 3.75667 16.82 3.715 16.64 3.715C16.4633 3.715 16.2917 3.75667 16.125 3.84C15.9617 3.92 15.8167 4.06167 15.69 4.265C15.5633 4.46833 15.4617 4.74167 15.385 5.085C15.3117 5.42833 15.275 5.86167 15.275 6.385C15.275 6.90833 15.3117 7.34167 15.385 7.685C15.4617 8.02833 15.5633 8.30167 15.69 8.505C15.8167 8.70833 15.9617 8.85167 16.125 8.935C16.2917 9.015 16.4633 9.055 16.64 9.055C16.82 9.055 16.9933 9.015 17.16 8.935C17.3267 8.85167 17.4733 8.70833 17.6 8.505C17.73 8.30167 17.8333 8.02833 17.91 7.685C17.9867 7.34167 18.025 6.90833 18.025 6.385ZM25.3008 6.385C25.3008 7.015 25.2324 7.56333 25.0958 8.03C24.9624 8.49333 24.7758 8.87667 24.5358 9.18C24.2991 9.48333 24.0174 9.71 23.6908 9.86C23.3674 10.0067 23.0174 10.08 22.6408 10.08C22.2641 10.08 21.9141 10.0067 21.5908 9.86C21.2708 9.71 20.9924 9.48333 20.7558 9.18C20.5191 8.87667 20.3341 8.49333 20.2008 8.03C20.0674 7.56333 20.0008 7.015 20.0008 6.385C20.0008 5.75167 20.0674 5.20333 20.2008 4.74C20.3341 4.27667 20.5191 3.89333 20.7558 3.59C20.9924 3.28667 21.2708 3.06167 21.5908 2.915C21.9141 2.765 22.2641 2.69 22.6408 2.69C23.0174 2.69 23.3674 2.765 23.6908 2.915C24.0174 3.06167 24.2991 3.28667 24.5358 3.59C24.7758 3.89333 24.9624 4.27667 25.0958 4.74C25.2324 5.20333 25.3008 5.75167 25.3008 6.385ZM24.0258 6.385C24.0258 5.86167 23.9874 5.42833 23.9108 5.085C23.8341 4.74167 23.7308 4.46833 23.6008 4.265C23.4741 4.06167 23.3274 3.92 23.1608 3.84C22.9941 3.75667 22.8208 3.715 22.6408 3.715C22.4641 3.715 22.2924 3.75667 22.1258 3.84C21.9624 3.92 21.8174 4.06167 21.6908 4.265C21.5641 4.46833 21.4624 4.74167 21.3858 5.085C21.3124 5.42833 21.2758 5.86167 21.2758 6.385C21.2758 6.90833 21.3124 7.34167 21.3858 7.685C21.4624 8.02833 21.5641 8.30167 21.6908 8.505C21.8174 8.70833 21.9624 8.85167 22.1258 8.935C22.2924 9.015 22.4641 9.055 22.6408 9.055C22.8208 9.055 22.9941 9.015 23.1608 8.935C23.3274 8.85167 23.4741 8.70833 23.6008 8.505C23.7308 8.30167 23.8341 8.02833 23.9108 7.685C23.9874 7.34167 24.0258 6.90833 24.0258 6.385ZM26.1516 9.24C26.1516 9.14667 26.1682 9.06 26.2016 8.98C26.2382 8.89667 26.2882 8.825 26.3516 8.765C26.4149 8.70167 26.4916 8.65333 26.5816 8.62C26.6716 8.58333 26.7699 8.565 26.8766 8.565C27.0032 8.565 27.1132 8.58833 27.2066 8.635C27.2999 8.67833 27.3782 8.74 27.4416 8.82C27.5049 8.89667 27.5516 8.98667 27.5816 9.09C27.6116 9.19 27.6266 9.29667 27.6266 9.41C27.6266 9.57 27.6016 9.73833 27.5516 9.915C27.5049 10.0917 27.4349 10.2683 27.3416 10.445C27.2482 10.6217 27.1332 10.7933 26.9966 10.96C26.8599 11.1267 26.7032 11.28 26.5266 11.42L26.3116 11.225C26.2516 11.175 26.2216 11.1133 26.2216 11.04C26.2216 11.0133 26.2299 10.9833 26.2466 10.95C26.2666 10.9167 26.2899 10.8867 26.3166 10.86C26.3532 10.82 26.3982 10.77 26.4516 10.71C26.5049 10.6533 26.5582 10.5867 26.6116 10.51C26.6649 10.4367 26.7132 10.355 26.7566 10.265C26.8032 10.1783 26.8366 10.085 26.8566 9.985C26.7532 9.985 26.6582 9.96667 26.5716 9.93C26.4849 9.89 26.4099 9.83667 26.3466 9.77C26.2866 9.70333 26.2382 9.625 26.2016 9.535C26.1682 9.445 26.1516 9.34667 26.1516 9.24ZM33.7477 6.385C33.7477 7.015 33.6793 7.56333 33.5427 8.03C33.4093 8.49333 33.2227 8.87667 32.9827 9.18C32.746 9.48333 32.4643 9.71 32.1377 9.86C31.8143 10.0067 31.4643 10.08 31.0877 10.08C30.711 10.08 30.361 10.0067 30.0377 9.86C29.7177 9.71 29.4393 9.48333 29.2027 9.18C28.966 8.87667 28.781 8.49333 28.6477 8.03C28.5143 7.56333 28.4477 7.015 28.4477 6.385C28.4477 5.75167 28.5143 5.20333 28.6477 4.74C28.781 4.27667 28.966 3.89333 29.2027 3.59C29.4393 3.28667 29.7177 3.06167 30.0377 2.915C30.361 2.765 30.711 2.69 31.0877 2.69C31.4643 2.69 31.8143 2.765 32.1377 2.915C32.4643 3.06167 32.746 3.28667 32.9827 3.59C33.2227 3.89333 33.4093 4.27667 33.5427 4.74C33.6793 5.20333 33.7477 5.75167 33.7477 6.385ZM32.4727 6.385C32.4727 5.86167 32.4343 5.42833 32.3577 5.085C32.281 4.74167 32.1777 4.46833 32.0477 4.265C31.921 4.06167 31.7743 3.92 31.6077 3.84C31.441 3.75667 31.2677 3.715 31.0877 3.715C30.911 3.715 30.7393 3.75667 30.5727 3.84C30.4093 3.92 30.2643 4.06167 30.1377 4.265C30.011 4.46833 29.9093 4.74167 29.8327 5.085C29.7593 5.42833 29.7227 5.86167 29.7227 6.385C29.7227 6.90833 29.7593 7.34167 29.8327 7.685C29.9093 8.02833 30.011 8.30167 30.1377 8.505C30.2643 8.70833 30.4093 8.85167 30.5727 8.935C30.7393 9.015 30.911 9.055 31.0877 9.055C31.2677 9.055 31.441 9.015 31.6077 8.935C31.7743 8.85167 31.921 8.70833 32.0477 8.505C32.1777 8.30167 32.281 8.02833 32.3577 7.685C32.4343 7.34167 32.4727 6.90833 32.4727 6.385ZM39.7484 6.385C39.7484 7.015 39.6801 7.56333 39.5434 8.03C39.4101 8.49333 39.2234 8.87667 38.9834 9.18C38.7468 9.48333 38.4651 9.71 38.1384 9.86C37.8151 10.0067 37.4651 10.08 37.0884 10.08C36.7118 10.08 36.3618 10.0067 36.0384 9.86C35.7184 9.71 35.4401 9.48333 35.2034 9.18C34.9668 8.87667 34.7818 8.49333 34.6484 8.03C34.5151 7.56333 34.4484 7.015 34.4484 6.385C34.4484 5.75167 34.5151 5.20333 34.6484 4.74C34.7818 4.27667 34.9668 3.89333 35.2034 3.59C35.4401 3.28667 35.7184 3.06167 36.0384 2.915C36.3618 2.765 36.7118 2.69 37.0884 2.69C37.4651 2.69 37.8151 2.765 38.1384 2.915C38.4651 3.06167 38.7468 3.28667 38.9834 3.59C39.2234 3.89333 39.4101 4.27667 39.5434 4.74C39.6801 5.20333 39.7484 5.75167 39.7484 6.385ZM38.4734 6.385C38.4734 5.86167 38.4351 5.42833 38.3584 5.085C38.2818 4.74167 38.1784 4.46833 38.0484 4.265C37.9218 4.06167 37.7751 3.92 37.6084 3.84C37.4418 3.75667 37.2684 3.715 37.0884 3.715C36.9118 3.715 36.7401 3.75667 36.5734 3.84C36.4101 3.92 36.2651 4.06167 36.1384 4.265C36.0118 4.46833 35.9101 4.74167 35.8334 5.085C35.7601 5.42833 35.7234 5.86167 35.7234 6.385C35.7234 6.90833 35.7601 7.34167 35.8334 7.685C35.9101 8.02833 36.0118 8.30167 36.1384 8.505C36.2651 8.70833 36.4101 8.85167 36.5734 8.935C36.7401 9.015 36.9118 9.055 37.0884 9.055C37.2684 9.055 37.4418 9.015 37.6084 8.935C37.7751 8.85167 37.9218 8.70833 38.0484 8.505C38.1784 8.30167 38.2818 8.02833 38.3584 7.685C38.4351 7.34167 38.4734 6.90833 38.4734 6.385ZM45.7492 6.385C45.7492 7.015 45.6809 7.56333 45.5442 8.03C45.4109 8.49333 45.2242 8.87667 44.9842 9.18C44.7476 9.48333 44.4659 9.71 44.1392 9.86C43.8159 10.0067 43.4659 10.08 43.0892 10.08C42.7126 10.08 42.3626 10.0067 42.0392 9.86C41.7192 9.71 41.4409 9.48333 41.2042 9.18C40.9676 8.87667 40.7826 8.49333 40.6492 8.03C40.5159 7.56333 40.4492 7.015 40.4492 6.385C40.4492 5.75167 40.5159 5.20333 40.6492 4.74C40.7826 4.27667 40.9676 3.89333 41.2042 3.59C41.4409 3.28667 41.7192 3.06167 42.0392 2.915C42.3626 2.765 42.7126 2.69 43.0892 2.69C43.4659 2.69 43.8159 2.765 44.1392 2.915C44.4659 3.06167 44.7476 3.28667 44.9842 3.59C45.2242 3.89333 45.4109 4.27667 45.5442 4.74C45.6809 5.20333 45.7492 5.75167 45.7492 6.385ZM44.4742 6.385C44.4742 5.86167 44.4359 5.42833 44.3592 5.085C44.2826 4.74167 44.1792 4.46833 44.0492 4.265C43.9226 4.06167 43.7759 3.92 43.6092 3.84C43.4426 3.75667 43.2692 3.715 43.0892 3.715C42.9126 3.715 42.7409 3.75667 42.5742 3.84C42.4109 3.92 42.2659 4.06167 42.1392 4.265C42.0126 4.46833 41.9109 4.74167 41.8342 5.085C41.7609 5.42833 41.7242 5.86167 41.7242 6.385C41.7242 6.90833 41.7609 7.34167 41.8342 7.685C41.9109 8.02833 42.0126 8.30167 42.1392 8.505C42.2659 8.70833 42.4109 8.85167 42.5742 8.935C42.7409 9.015 42.9126 9.055 43.0892 9.055C43.2692 9.055 43.4426 9.015 43.6092 8.935C43.7759 8.85167 43.9226 8.70833 44.0492 8.505C44.1792 8.30167 44.2826 8.02833 44.3592 7.685C44.4359 7.34167 44.4742 6.90833 44.4742 6.385Z" fill="#A0A4A8"/>
<path d="M10.0642 42.045C9.67422 41.9917 9.30755 41.885 8.96422 41.725C8.62422 41.565 8.33422 41.3667 8.09422 41.13L8.47422 40.565C8.50755 40.515 8.55088 40.475 8.60422 40.445C8.66088 40.4117 8.71922 40.395 8.77922 40.395C8.85255 40.395 8.93088 40.4217 9.01422 40.475C9.09755 40.525 9.19255 40.585 9.29922 40.655C9.40588 40.725 9.52755 40.795 9.66422 40.865C9.80088 40.935 9.96255 40.9867 10.1492 41.02L10.3392 38.78C10.1026 38.7133 9.86755 38.635 9.63422 38.545C9.40422 38.455 9.19588 38.3367 9.00922 38.19C8.82588 38.04 8.67755 37.8517 8.56422 37.625C8.45088 37.3983 8.39422 37.115 8.39422 36.775C8.39422 36.5217 8.44422 36.275 8.54422 36.035C8.64755 35.7917 8.79588 35.575 8.98922 35.385C9.18255 35.195 9.42088 35.0383 9.70422 34.915C9.98755 34.7917 10.3126 34.7217 10.6792 34.705L10.7342 34.075C10.7409 33.995 10.7742 33.9233 10.8342 33.86C10.8942 33.7967 10.9726 33.765 11.0692 33.765H11.5242L11.4392 34.75C11.7926 34.8067 12.0976 34.9067 12.3542 35.05C12.6109 35.1933 12.8342 35.355 13.0242 35.535L12.7242 35.99C12.6776 36.0567 12.6309 36.1067 12.5842 36.14C12.5376 36.1733 12.4809 36.19 12.4142 36.19C12.3642 36.19 12.3042 36.175 12.2342 36.145C12.1676 36.1117 12.0892 36.0733 11.9992 36.03C11.9126 35.9833 11.8159 35.9367 11.7092 35.89C11.6026 35.8433 11.4842 35.805 11.3542 35.775L11.1792 37.845C11.4192 37.9183 11.6559 38 11.8892 38.09C12.1259 38.1767 12.3376 38.29 12.5242 38.43C12.7142 38.57 12.8676 38.745 12.9842 38.955C13.1009 39.1617 13.1592 39.4217 13.1592 39.735C13.1592 40.045 13.1076 40.3367 13.0042 40.61C12.9009 40.88 12.7492 41.12 12.5492 41.33C12.3526 41.5367 12.1092 41.705 11.8192 41.835C11.5292 41.965 11.1976 42.0433 10.8242 42.07L10.7642 42.805C10.7576 42.8817 10.7242 42.9517 10.6642 43.015C10.6042 43.0817 10.5259 43.115 10.4292 43.115H9.97422L10.0642 42.045ZM11.9892 39.925C11.9892 39.7983 11.9659 39.6883 11.9192 39.595C11.8759 39.4983 11.8126 39.4133 11.7292 39.34C11.6492 39.2667 11.5542 39.2033 11.4442 39.15C11.3342 39.0967 11.2142 39.0483 11.0842 39.005L10.9142 41.035C11.2676 40.9883 11.5342 40.87 11.7142 40.68C11.8976 40.4867 11.9892 40.235 11.9892 39.925ZM9.55922 36.655C9.55922 36.7817 9.58088 36.8933 9.62422 36.99C9.66755 37.0867 9.72755 37.1733 9.80422 37.25C9.88422 37.3233 9.97755 37.39 10.0842 37.45C10.1909 37.5067 10.3076 37.5583 10.4342 37.605L10.5892 35.755C10.4059 35.7783 10.2492 35.8183 10.1192 35.875C9.98922 35.9283 9.88255 35.995 9.79922 36.075C9.71588 36.155 9.65422 36.245 9.61422 36.345C9.57755 36.4417 9.55922 36.545 9.55922 36.655ZM16.65 42.08C16.2767 42.08 15.935 42.03 15.625 41.93C15.3183 41.83 15.055 41.6883 14.835 41.505C14.615 41.3217 14.4433 41.1 14.32 40.84C14.2 40.58 14.14 40.29 14.14 39.97C14.14 39.5433 14.245 39.1833 14.455 38.89C14.665 38.5933 14.9917 38.3733 15.435 38.23C15.0817 38.0833 14.8167 37.875 14.64 37.605C14.4667 37.335 14.38 37.01 14.38 36.63C14.38 36.3567 14.435 36.1017 14.545 35.865C14.6583 35.6283 14.815 35.4233 15.015 35.25C15.215 35.0733 15.4533 34.9367 15.73 34.84C16.01 34.74 16.3167 34.69 16.65 34.69C16.9833 34.69 17.2883 34.74 17.565 34.84C17.845 34.9367 18.085 35.0733 18.285 35.25C18.485 35.4233 18.64 35.6283 18.75 35.865C18.8633 36.1017 18.92 36.3567 18.92 36.63C18.92 37.01 18.8317 37.335 18.655 37.605C18.4783 37.875 18.215 38.0833 17.865 38.23C18.3083 38.3733 18.635 38.5933 18.845 38.89C19.055 39.1833 19.16 39.5433 19.16 39.97C19.16 40.29 19.0983 40.58 18.975 40.84C18.855 41.1 18.685 41.3217 18.465 41.505C18.245 41.6883 17.98 41.83 17.67 41.93C17.3633 42.03 17.0233 42.08 16.65 42.08ZM16.65 41.115C16.8533 41.115 17.0317 41.0867 17.185 41.03C17.3383 40.97 17.4667 40.8883 17.57 40.785C17.6767 40.6817 17.7567 40.5583 17.81 40.415C17.8633 40.2717 17.89 40.1167 17.89 39.95C17.89 39.5533 17.78 39.2533 17.56 39.05C17.34 38.8467 17.0367 38.745 16.65 38.745C16.2633 38.745 15.96 38.8467 15.74 39.05C15.52 39.2533 15.41 39.5533 15.41 39.95C15.41 40.1167 15.4367 40.2717 15.49 40.415C15.5433 40.5583 15.6217 40.6817 15.725 40.785C15.8317 40.8883 15.9617 40.97 16.115 41.03C16.2683 41.0867 16.4467 41.115 16.65 41.115ZM16.65 37.775C16.85 37.775 17.0183 37.7433 17.155 37.68C17.2917 37.6167 17.4017 37.5333 17.485 37.43C17.5683 37.3233 17.6267 37.2033 17.66 37.07C17.6967 36.9333 17.715 36.7933 17.715 36.65C17.715 36.5133 17.6933 36.3833 17.65 36.26C17.6067 36.1367 17.5417 36.0283 17.455 35.935C17.3683 35.8383 17.2583 35.7617 17.125 35.705C16.9917 35.6483 16.8333 35.62 16.65 35.62C16.4667 35.62 16.3083 35.6483 16.175 35.705C16.0417 35.7617 15.93 35.8383 15.84 35.935C15.7533 36.0283 15.6883 36.1367 15.645 36.26C15.605 36.3833 15.585 36.5133 15.585 36.65C15.585 36.7933 15.6017 36.9333 15.635 37.07C15.6717 37.2033 15.7317 37.3233 15.815 37.43C15.8983 37.5333 16.0083 37.6167 16.145 37.68C16.2817 37.7433 16.45 37.775 16.65 37.775ZM25.3008 38.385C25.3008 39.015 25.2324 39.5633 25.0958 40.03C24.9624 40.4933 24.7758 40.8767 24.5358 41.18C24.2991 41.4833 24.0174 41.71 23.6908 41.86C23.3674 42.0067 23.0174 42.08 22.6408 42.08C22.2641 42.08 21.9141 42.0067 21.5908 41.86C21.2708 41.71 20.9924 41.4833 20.7558 41.18C20.5191 40.8767 20.3341 40.4933 20.2008 40.03C20.0674 39.5633 20.0008 39.015 20.0008 38.385C20.0008 37.7517 20.0674 37.2033 20.2008 36.74C20.3341 36.2767 20.5191 35.8933 20.7558 35.59C20.9924 35.2867 21.2708 35.0617 21.5908 34.915C21.9141 34.765 22.2641 34.69 22.6408 34.69C23.0174 34.69 23.3674 34.765 23.6908 34.915C24.0174 35.0617 24.2991 35.2867 24.5358 35.59C24.7758 35.8933 24.9624 36.2767 25.0958 36.74C25.2324 37.2033 25.3008 37.7517 25.3008 38.385ZM24.0258 38.385C24.0258 37.8617 23.9874 37.4283 23.9108 37.085C23.8341 36.7417 23.7308 36.4683 23.6008 36.265C23.4741 36.0617 23.3274 35.92 23.1608 35.84C22.9941 35.7567 22.8208 35.715 22.6408 35.715C22.4641 35.715 22.2924 35.7567 22.1258 35.84C21.9624 35.92 21.8174 36.0617 21.6908 36.265C21.5641 36.4683 21.4624 36.7417 21.3858 37.085C21.3124 37.4283 21.2758 37.8617 21.2758 38.385C21.2758 38.9083 21.3124 39.3417 21.3858 39.685C21.4624 40.0283 21.5641 40.3017 21.6908 40.505C21.8174 40.7083 21.9624 40.8517 22.1258 40.935C22.2924 41.015 22.4641 41.055 22.6408 41.055C22.8208 41.055 22.9941 41.015 23.1608 40.935C23.3274 40.8517 23.4741 40.7083 23.6008 40.505C23.7308 40.3017 23.8341 40.0283 23.9108 39.685C23.9874 39.3417 24.0258 38.9083 24.0258 38.385ZM26.1516 41.24C26.1516 41.1467 26.1682 41.06 26.2016 40.98C26.2382 40.8967 26.2882 40.825 26.3516 40.765C26.4149 40.7017 26.4916 40.6533 26.5816 40.62C26.6716 40.5833 26.7699 40.565 26.8766 40.565C27.0032 40.565 27.1132 40.5883 27.2066 40.635C27.2999 40.6783 27.3782 40.74 27.4416 40.82C27.5049 40.8967 27.5516 40.9867 27.5816 41.09C27.6116 41.19 27.6266 41.2967 27.6266 41.41C27.6266 41.57 27.6016 41.7383 27.5516 41.915C27.5049 42.0917 27.4349 42.2683 27.3416 42.445C27.2482 42.6217 27.1332 42.7933 26.9966 42.96C26.8599 43.1267 26.7032 43.28 26.5266 43.42L26.3116 43.225C26.2516 43.175 26.2216 43.1133 26.2216 43.04C26.2216 43.0133 26.2299 42.9833 26.2466 42.95C26.2666 42.9167 26.2899 42.8867 26.3166 42.86C26.3532 42.82 26.3982 42.77 26.4516 42.71C26.5049 42.6533 26.5582 42.5867 26.6116 42.51C26.6649 42.4367 26.7132 42.355 26.7566 42.265C26.8032 42.1783 26.8366 42.085 26.8566 41.985C26.7532 41.985 26.6582 41.9667 26.5716 41.93C26.4849 41.89 26.4099 41.8367 26.3466 41.77C26.2866 41.7033 26.2382 41.625 26.2016 41.535C26.1682 41.445 26.1516 41.3467 26.1516 41.24ZM33.7477 38.385C33.7477 39.015 33.6793 39.5633 33.5427 40.03C33.4093 40.4933 33.2227 40.8767 32.9827 41.18C32.746 41.4833 32.4643 41.71 32.1377 41.86C31.8143 42.0067 31.4643 42.08 31.0877 42.08C30.711 42.08 30.361 42.0067 30.0377 41.86C29.7177 41.71 29.4393 41.4833 29.2027 41.18C28.966 40.8767 28.781 40.4933 28.6477 40.03C28.5143 39.5633 28.4477 39.015 28.4477 38.385C28.4477 37.7517 28.5143 37.2033 28.6477 36.74C28.781 36.2767 28.966 35.8933 29.2027 35.59C29.4393 35.2867 29.7177 35.0617 30.0377 34.915C30.361 34.765 30.711 34.69 31.0877 34.69C31.4643 34.69 31.8143 34.765 32.1377 34.915C32.4643 35.0617 32.746 35.2867 32.9827 35.59C33.2227 35.8933 33.4093 36.2767 33.5427 36.74C33.6793 37.2033 33.7477 37.7517 33.7477 38.385ZM32.4727 38.385C32.4727 37.8617 32.4343 37.4283 32.3577 37.085C32.281 36.7417 32.1777 36.4683 32.0477 36.265C31.921 36.0617 31.7743 35.92 31.6077 35.84C31.441 35.7567 31.2677 35.715 31.0877 35.715C30.911 35.715 30.7393 35.7567 30.5727 35.84C30.4093 35.92 30.2643 36.0617 30.1377 36.265C30.011 36.4683 29.9093 36.7417 29.8327 37.085C29.7593 37.4283 29.7227 37.8617 29.7227 38.385C29.7227 38.9083 29.7593 39.3417 29.8327 39.685C29.9093 40.0283 30.011 40.3017 30.1377 40.505C30.2643 40.7083 30.4093 40.8517 30.5727 40.935C30.7393 41.015 30.911 41.055 31.0877 41.055C31.2677 41.055 31.441 41.015 31.6077 40.935C31.7743 40.8517 31.921 40.7083 32.0477 40.505C32.1777 40.3017 32.281 40.0283 32.3577 39.685C32.4343 39.3417 32.4727 38.9083 32.4727 38.385ZM39.7484 38.385C39.7484 39.015 39.6801 39.5633 39.5434 40.03C39.4101 40.4933 39.2234 40.8767 38.9834 41.18C38.7468 41.4833 38.4651 41.71 38.1384 41.86C37.8151 42.0067 37.4651 42.08 37.0884 42.08C36.7118 42.08 36.3618 42.0067 36.0384 41.86C35.7184 41.71 35.4401 41.4833 35.2034 41.18C34.9668 40.8767 34.7818 40.4933 34.6484 40.03C34.5151 39.5633 34.4484 39.015 34.4484 38.385C34.4484 37.7517 34.5151 37.2033 34.6484 36.74C34.7818 36.2767 34.9668 35.8933 35.2034 35.59C35.4401 35.2867 35.7184 35.0617 36.0384 34.915C36.3618 34.765 36.7118 34.69 37.0884 34.69C37.4651 34.69 37.8151 34.765 38.1384 34.915C38.4651 35.0617 38.7468 35.2867 38.9834 35.59C39.2234 35.8933 39.4101 36.2767 39.5434 36.74C39.6801 37.2033 39.7484 37.7517 39.7484 38.385ZM38.4734 38.385C38.4734 37.8617 38.4351 37.4283 38.3584 37.085C38.2818 36.7417 38.1784 36.4683 38.0484 36.265C37.9218 36.0617 37.7751 35.92 37.6084 35.84C37.4418 35.7567 37.2684 35.715 37.0884 35.715C36.9118 35.715 36.7401 35.7567 36.5734 35.84C36.4101 35.92 36.2651 36.0617 36.1384 36.265C36.0118 36.4683 35.9101 36.7417 35.8334 37.085C35.7601 37.4283 35.7234 37.8617 35.7234 38.385C35.7234 38.9083 35.7601 39.3417 35.8334 39.685C35.9101 40.0283 36.0118 40.3017 36.1384 40.505C36.2651 40.7083 36.4101 40.8517 36.5734 40.935C36.7401 41.015 36.9118 41.055 37.0884 41.055C37.2684 41.055 37.4418 41.015 37.6084 40.935C37.7751 40.8517 37.9218 40.7083 38.0484 40.505C38.1784 40.3017 38.2818 40.0283 38.3584 39.685C38.4351 39.3417 38.4734 38.9083 38.4734 38.385ZM45.7492 38.385C45.7492 39.015 45.6809 39.5633 45.5442 40.03C45.4109 40.4933 45.2242 40.8767 44.9842 41.18C44.7476 41.4833 44.4659 41.71 44.1392 41.86C43.8159 42.0067 43.4659 42.08 43.0892 42.08C42.7126 42.08 42.3626 42.0067 42.0392 41.86C41.7192 41.71 41.4409 41.4833 41.2042 41.18C40.9676 40.8767 40.7826 40.4933 40.6492 40.03C40.5159 39.5633 40.4492 39.015 40.4492 38.385C40.4492 37.7517 40.5159 37.2033 40.6492 36.74C40.7826 36.2767 40.9676 35.8933 41.2042 35.59C41.4409 35.2867 41.7192 35.0617 42.0392 34.915C42.3626 34.765 42.7126 34.69 43.0892 34.69C43.4659 34.69 43.8159 34.765 44.1392 34.915C44.4659 35.0617 44.7476 35.2867 44.9842 35.59C45.2242 35.8933 45.4109 36.2767 45.5442 36.74C45.6809 37.2033 45.7492 37.7517 45.7492 38.385ZM44.4742 38.385C44.4742 37.8617 44.4359 37.4283 44.3592 37.085C44.2826 36.7417 44.1792 36.4683 44.0492 36.265C43.9226 36.0617 43.7759 35.92 43.6092 35.84C43.4426 35.7567 43.2692 35.715 43.0892 35.715C42.9126 35.715 42.7409 35.7567 42.5742 35.84C42.4109 35.92 42.2659 36.0617 42.1392 36.265C42.0126 36.4683 41.9109 36.7417 41.8342 37.085C41.7609 37.4283 41.7242 37.8617 41.7242 38.385C41.7242 38.9083 41.7609 39.3417 41.8342 39.685C41.9109 40.0283 42.0126 40.3017 42.1392 40.505C42.2659 40.7083 42.4109 40.8517 42.5742 40.935C42.7409 41.015 42.9126 41.055 43.0892 41.055C43.2692 41.055 43.4426 41.015 43.6092 40.935C43.7759 40.8517 43.9226 40.7083 44.0492 40.505C44.1792 40.3017 44.2826 40.0283 44.3592 39.685C44.4359 39.3417 44.4742 38.9083 44.4742 38.385Z" fill="#A0A4A8"/>
<path d="M10.0642 74.045C9.67422 73.9917 9.30755 73.885 8.96422 73.725C8.62422 73.565 8.33422 73.3667 8.09422 73.13L8.47422 72.565C8.50755 72.515 8.55088 72.475 8.60422 72.445C8.66088 72.4117 8.71922 72.395 8.77922 72.395C8.85255 72.395 8.93088 72.4217 9.01422 72.475C9.09755 72.525 9.19255 72.585 9.29922 72.655C9.40588 72.725 9.52755 72.795 9.66422 72.865C9.80088 72.935 9.96255 72.9867 10.1492 73.02L10.3392 70.78C10.1026 70.7133 9.86755 70.635 9.63422 70.545C9.40422 70.455 9.19588 70.3367 9.00922 70.19C8.82588 70.04 8.67755 69.8517 8.56422 69.625C8.45088 69.3983 8.39422 69.115 8.39422 68.775C8.39422 68.5217 8.44422 68.275 8.54422 68.035C8.64755 67.7917 8.79588 67.575 8.98922 67.385C9.18255 67.195 9.42088 67.0383 9.70422 66.915C9.98755 66.7917 10.3126 66.7217 10.6792 66.705L10.7342 66.075C10.7409 65.995 10.7742 65.9233 10.8342 65.86C10.8942 65.7967 10.9726 65.765 11.0692 65.765H11.5242L11.4392 66.75C11.7926 66.8067 12.0976 66.9067 12.3542 67.05C12.6109 67.1933 12.8342 67.355 13.0242 67.535L12.7242 67.99C12.6776 68.0567 12.6309 68.1067 12.5842 68.14C12.5376 68.1733 12.4809 68.19 12.4142 68.19C12.3642 68.19 12.3042 68.175 12.2342 68.145C12.1676 68.1117 12.0892 68.0733 11.9992 68.03C11.9126 67.9833 11.8159 67.9367 11.7092 67.89C11.6026 67.8433 11.4842 67.805 11.3542 67.775L11.1792 69.845C11.4192 69.9183 11.6559 70 11.8892 70.09C12.1259 70.1767 12.3376 70.29 12.5242 70.43C12.7142 70.57 12.8676 70.745 12.9842 70.955C13.1009 71.1617 13.1592 71.4217 13.1592 71.735C13.1592 72.045 13.1076 72.3367 13.0042 72.61C12.9009 72.88 12.7492 73.12 12.5492 73.33C12.3526 73.5367 12.1092 73.705 11.8192 73.835C11.5292 73.965 11.1976 74.0433 10.8242 74.07L10.7642 74.805C10.7576 74.8817 10.7242 74.9517 10.6642 75.015C10.6042 75.0817 10.5259 75.115 10.4292 75.115H9.97422L10.0642 74.045ZM11.9892 71.925C11.9892 71.7983 11.9659 71.6883 11.9192 71.595C11.8759 71.4983 11.8126 71.4133 11.7292 71.34C11.6492 71.2667 11.5542 71.2033 11.4442 71.15C11.3342 71.0967 11.2142 71.0483 11.0842 71.005L10.9142 73.035C11.2676 72.9883 11.5342 72.87 11.7142 72.68C11.8976 72.4867 11.9892 72.235 11.9892 71.925ZM9.55922 68.655C9.55922 68.7817 9.58088 68.8933 9.62422 68.99C9.66755 69.0867 9.72755 69.1733 9.80422 69.25C9.88422 69.3233 9.97755 69.39 10.0842 69.45C10.1909 69.5067 10.3076 69.5583 10.4342 69.605L10.5892 67.755C10.4059 67.7783 10.2492 67.8183 10.1192 67.875C9.98922 67.9283 9.88255 67.995 9.79922 68.075C9.71588 68.155 9.65422 68.245 9.61422 68.345C9.57755 68.4417 9.55922 68.545 9.55922 68.655ZM17.1 69.485C17.3733 69.485 17.6383 69.53 17.895 69.62C18.155 69.71 18.3833 69.8467 18.58 70.03C18.7767 70.21 18.935 70.435 19.055 70.705C19.175 70.975 19.235 71.29 19.235 71.65C19.235 71.9867 19.1733 72.3033 19.05 72.6C18.9267 72.8933 18.7533 73.15 18.53 73.37C18.3067 73.59 18.0367 73.7633 17.72 73.89C17.4067 74.0167 17.06 74.08 16.68 74.08C16.2933 74.08 15.9467 74.0183 15.64 73.895C15.3333 73.7717 15.0717 73.6 14.855 73.38C14.6383 73.1567 14.4717 72.89 14.355 72.58C14.2417 72.2667 14.185 71.92 14.185 71.54C14.185 71.2 14.2533 70.8517 14.39 70.495C14.53 70.135 14.745 69.7617 15.035 69.375L16.76 67.06C16.82 66.98 16.9067 66.9117 17.02 66.855C17.1367 66.7983 17.27 66.77 17.42 66.77H18.52L16.375 69.395C16.3283 69.4517 16.2833 69.505 16.24 69.555C16.2 69.605 16.16 69.6567 16.12 69.71C16.26 69.64 16.41 69.585 16.57 69.545C16.7333 69.505 16.91 69.485 17.1 69.485ZM15.37 71.73C15.37 71.93 15.3967 72.1133 15.45 72.28C15.5067 72.4433 15.5883 72.5833 15.695 72.7C15.805 72.8167 15.94 72.9083 16.1 72.975C16.26 73.0383 16.445 73.07 16.655 73.07C16.8517 73.07 17.0317 73.0367 17.195 72.97C17.3617 72.9033 17.5033 72.81 17.62 72.69C17.74 72.57 17.8333 72.43 17.9 72.27C17.9667 72.1067 18 71.93 18 71.74C18 71.5333 17.9683 71.3483 17.905 71.185C17.8417 71.0183 17.7517 70.8783 17.635 70.765C17.5183 70.6483 17.3783 70.56 17.215 70.5C17.0517 70.44 16.8717 70.41 16.675 70.41C16.4783 70.41 16.3 70.4433 16.14 70.51C15.98 70.5767 15.8417 70.67 15.725 70.79C15.6117 70.9067 15.5233 71.0467 15.46 71.21C15.4 71.37 15.37 71.5433 15.37 71.73ZM25.3008 70.385C25.3008 71.015 25.2324 71.5633 25.0958 72.03C24.9624 72.4933 24.7758 72.8767 24.5358 73.18C24.2991 73.4833 24.0174 73.71 23.6908 73.86C23.3674 74.0067 23.0174 74.08 22.6408 74.08C22.2641 74.08 21.9141 74.0067 21.5908 73.86C21.2708 73.71 20.9924 73.4833 20.7558 73.18C20.5191 72.8767 20.3341 72.4933 20.2008 72.03C20.0674 71.5633 20.0008 71.015 20.0008 70.385C20.0008 69.7517 20.0674 69.2033 20.2008 68.74C20.3341 68.2767 20.5191 67.8933 20.7558 67.59C20.9924 67.2867 21.2708 67.0617 21.5908 66.915C21.9141 66.765 22.2641 66.69 22.6408 66.69C23.0174 66.69 23.3674 66.765 23.6908 66.915C24.0174 67.0617 24.2991 67.2867 24.5358 67.59C24.7758 67.8933 24.9624 68.2767 25.0958 68.74C25.2324 69.2033 25.3008 69.7517 25.3008 70.385ZM24.0258 70.385C24.0258 69.8617 23.9874 69.4283 23.9108 69.085C23.8341 68.7417 23.7308 68.4683 23.6008 68.265C23.4741 68.0617 23.3274 67.92 23.1608 67.84C22.9941 67.7567 22.8208 67.715 22.6408 67.715C22.4641 67.715 22.2924 67.7567 22.1258 67.84C21.9624 67.92 21.8174 68.0617 21.6908 68.265C21.5641 68.4683 21.4624 68.7417 21.3858 69.085C21.3124 69.4283 21.2758 69.8617 21.2758 70.385C21.2758 70.9083 21.3124 71.3417 21.3858 71.685C21.4624 72.0283 21.5641 72.3017 21.6908 72.505C21.8174 72.7083 21.9624 72.8517 22.1258 72.935C22.2924 73.015 22.4641 73.055 22.6408 73.055C22.8208 73.055 22.9941 73.015 23.1608 72.935C23.3274 72.8517 23.4741 72.7083 23.6008 72.505C23.7308 72.3017 23.8341 72.0283 23.9108 71.685C23.9874 71.3417 24.0258 70.9083 24.0258 70.385ZM26.1516 73.24C26.1516 73.1467 26.1682 73.06 26.2016 72.98C26.2382 72.8967 26.2882 72.825 26.3516 72.765C26.4149 72.7017 26.4916 72.6533 26.5816 72.62C26.6716 72.5833 26.7699 72.565 26.8766 72.565C27.0032 72.565 27.1132 72.5883 27.2066 72.635C27.2999 72.6783 27.3782 72.74 27.4416 72.82C27.5049 72.8967 27.5516 72.9867 27.5816 73.09C27.6116 73.19 27.6266 73.2967 27.6266 73.41C27.6266 73.57 27.6016 73.7383 27.5516 73.915C27.5049 74.0917 27.4349 74.2683 27.3416 74.445C27.2482 74.6217 27.1332 74.7933 26.9966 74.96C26.8599 75.1267 26.7032 75.28 26.5266 75.42L26.3116 75.225C26.2516 75.175 26.2216 75.1133 26.2216 75.04C26.2216 75.0133 26.2299 74.9833 26.2466 74.95C26.2666 74.9167 26.2899 74.8867 26.3166 74.86C26.3532 74.82 26.3982 74.77 26.4516 74.71C26.5049 74.6533 26.5582 74.5867 26.6116 74.51C26.6649 74.4367 26.7132 74.355 26.7566 74.265C26.8032 74.1783 26.8366 74.085 26.8566 73.985C26.7532 73.985 26.6582 73.9667 26.5716 73.93C26.4849 73.89 26.4099 73.8367 26.3466 73.77C26.2866 73.7033 26.2382 73.625 26.2016 73.535C26.1682 73.445 26.1516 73.3467 26.1516 73.24ZM33.7477 70.385C33.7477 71.015 33.6793 71.5633 33.5427 72.03C33.4093 72.4933 33.2227 72.8767 32.9827 73.18C32.746 73.4833 32.4643 73.71 32.1377 73.86C31.8143 74.0067 31.4643 74.08 31.0877 74.08C30.711 74.08 30.361 74.0067 30.0377 73.86C29.7177 73.71 29.4393 73.4833 29.2027 73.18C28.966 72.8767 28.781 72.4933 28.6477 72.03C28.5143 71.5633 28.4477 71.015 28.4477 70.385C28.4477 69.7517 28.5143 69.2033 28.6477 68.74C28.781 68.2767 28.966 67.8933 29.2027 67.59C29.4393 67.2867 29.7177 67.0617 30.0377 66.915C30.361 66.765 30.711 66.69 31.0877 66.69C31.4643 66.69 31.8143 66.765 32.1377 66.915C32.4643 67.0617 32.746 67.2867 32.9827 67.59C33.2227 67.8933 33.4093 68.2767 33.5427 68.74C33.6793 69.2033 33.7477 69.7517 33.7477 70.385ZM32.4727 70.385C32.4727 69.8617 32.4343 69.4283 32.3577 69.085C32.281 68.7417 32.1777 68.4683 32.0477 68.265C31.921 68.0617 31.7743 67.92 31.6077 67.84C31.441 67.7567 31.2677 67.715 31.0877 67.715C30.911 67.715 30.7393 67.7567 30.5727 67.84C30.4093 67.92 30.2643 68.0617 30.1377 68.265C30.011 68.4683 29.9093 68.7417 29.8327 69.085C29.7593 69.4283 29.7227 69.8617 29.7227 70.385C29.7227 70.9083 29.7593 71.3417 29.8327 71.685C29.9093 72.0283 30.011 72.3017 30.1377 72.505C30.2643 72.7083 30.4093 72.8517 30.5727 72.935C30.7393 73.015 30.911 73.055 31.0877 73.055C31.2677 73.055 31.441 73.015 31.6077 72.935C31.7743 72.8517 31.921 72.7083 32.0477 72.505C32.1777 72.3017 32.281 72.0283 32.3577 71.685C32.4343 71.3417 32.4727 70.9083 32.4727 70.385ZM39.7484 70.385C39.7484 71.015 39.6801 71.5633 39.5434 72.03C39.4101 72.4933 39.2234 72.8767 38.9834 73.18C38.7468 73.4833 38.4651 73.71 38.1384 73.86C37.8151 74.0067 37.4651 74.08 37.0884 74.08C36.7118 74.08 36.3618 74.0067 36.0384 73.86C35.7184 73.71 35.4401 73.4833 35.2034 73.18C34.9668 72.8767 34.7818 72.4933 34.6484 72.03C34.5151 71.5633 34.4484 71.015 34.4484 70.385C34.4484 69.7517 34.5151 69.2033 34.6484 68.74C34.7818 68.2767 34.9668 67.8933 35.2034 67.59C35.4401 67.2867 35.7184 67.0617 36.0384 66.915C36.3618 66.765 36.7118 66.69 37.0884 66.69C37.4651 66.69 37.8151 66.765 38.1384 66.915C38.4651 67.0617 38.7468 67.2867 38.9834 67.59C39.2234 67.8933 39.4101 68.2767 39.5434 68.74C39.6801 69.2033 39.7484 69.7517 39.7484 70.385ZM38.4734 70.385C38.4734 69.8617 38.4351 69.4283 38.3584 69.085C38.2818 68.7417 38.1784 68.4683 38.0484 68.265C37.9218 68.0617 37.7751 67.92 37.6084 67.84C37.4418 67.7567 37.2684 67.715 37.0884 67.715C36.9118 67.715 36.7401 67.7567 36.5734 67.84C36.4101 67.92 36.2651 68.0617 36.1384 68.265C36.0118 68.4683 35.9101 68.7417 35.8334 69.085C35.7601 69.4283 35.7234 69.8617 35.7234 70.385C35.7234 70.9083 35.7601 71.3417 35.8334 71.685C35.9101 72.0283 36.0118 72.3017 36.1384 72.505C36.2651 72.7083 36.4101 72.8517 36.5734 72.935C36.7401 73.015 36.9118 73.055 37.0884 73.055C37.2684 73.055 37.4418 73.015 37.6084 72.935C37.7751 72.8517 37.9218 72.7083 38.0484 72.505C38.1784 72.3017 38.2818 72.0283 38.3584 71.685C38.4351 71.3417 38.4734 70.9083 38.4734 70.385ZM45.7492 70.385C45.7492 71.015 45.6809 71.5633 45.5442 72.03C45.4109 72.4933 45.2242 72.8767 44.9842 73.18C44.7476 73.4833 44.4659 73.71 44.1392 73.86C43.8159 74.0067 43.4659 74.08 43.0892 74.08C42.7126 74.08 42.3626 74.0067 42.0392 73.86C41.7192 73.71 41.4409 73.4833 41.2042 73.18C40.9676 72.8767 40.7826 72.4933 40.6492 72.03C40.5159 71.5633 40.4492 71.015 40.4492 70.385C40.4492 69.7517 40.5159 69.2033 40.6492 68.74C40.7826 68.2767 40.9676 67.8933 41.2042 67.59C41.4409 67.2867 41.7192 67.0617 42.0392 66.915C42.3626 66.765 42.7126 66.69 43.0892 66.69C43.4659 66.69 43.8159 66.765 44.1392 66.915C44.4659 67.0617 44.7476 67.2867 44.9842 67.59C45.2242 67.8933 45.4109 68.2767 45.5442 68.74C45.6809 69.2033 45.7492 69.7517 45.7492 70.385ZM44.4742 70.385C44.4742 69.8617 44.4359 69.4283 44.3592 69.085C44.2826 68.7417 44.1792 68.4683 44.0492 68.265C43.9226 68.0617 43.7759 67.92 43.6092 67.84C43.4426 67.7567 43.2692 67.715 43.0892 67.715C42.9126 67.715 42.7409 67.7567 42.5742 67.84C42.4109 67.92 42.2659 68.0617 42.1392 68.265C42.0126 68.4683 41.9109 68.7417 41.8342 69.085C41.7609 69.4283 41.7242 69.8617 41.7242 70.385C41.7242 70.9083 41.7609 71.3417 41.8342 71.685C41.9109 72.0283 42.0126 72.3017 42.1392 72.505C42.2659 72.7083 42.4109 72.8517 42.5742 72.935C42.7409 73.015 42.9126 73.055 43.0892 73.055C43.2692 73.055 43.4426 73.015 43.6092 72.935C43.7759 72.8517 43.9226 72.7083 44.0492 72.505C44.1792 72.3017 44.2826 72.0283 44.3592 71.685C44.4359 71.3417 44.4742 70.9083 44.4742 70.385Z" fill="#A0A4A8"/>
<path d="M10.0642 106.045C9.67422 105.992 9.30755 105.885 8.96422 105.725C8.62422 105.565 8.33422 105.367 8.09422 105.13L8.47422 104.565C8.50755 104.515 8.55088 104.475 8.60422 104.445C8.66088 104.412 8.71922 104.395 8.77922 104.395C8.85255 104.395 8.93088 104.422 9.01422 104.475C9.09755 104.525 9.19255 104.585 9.29922 104.655C9.40588 104.725 9.52755 104.795 9.66422 104.865C9.80088 104.935 9.96255 104.987 10.1492 105.02L10.3392 102.78C10.1026 102.713 9.86755 102.635 9.63422 102.545C9.40422 102.455 9.19588 102.337 9.00922 102.19C8.82588 102.04 8.67755 101.852 8.56422 101.625C8.45088 101.398 8.39422 101.115 8.39422 100.775C8.39422 100.522 8.44422 100.275 8.54422 100.035C8.64755 99.7917 8.79588 99.575 8.98922 99.385C9.18255 99.195 9.42088 99.0383 9.70422 98.915C9.98755 98.7917 10.3126 98.7217 10.6792 98.705L10.7342 98.075C10.7409 97.995 10.7742 97.9233 10.8342 97.86C10.8942 97.7967 10.9726 97.765 11.0692 97.765H11.5242L11.4392 98.75C11.7926 98.8067 12.0976 98.9067 12.3542 99.05C12.6109 99.1933 12.8342 99.355 13.0242 99.535L12.7242 99.99C12.6776 100.057 12.6309 100.107 12.5842 100.14C12.5376 100.173 12.4809 100.19 12.4142 100.19C12.3642 100.19 12.3042 100.175 12.2342 100.145C12.1676 100.112 12.0892 100.073 11.9992 100.03C11.9126 99.9833 11.8159 99.9367 11.7092 99.89C11.6026 99.8433 11.4842 99.805 11.3542 99.775L11.1792 101.845C11.4192 101.918 11.6559 102 11.8892 102.09C12.1259 102.177 12.3376 102.29 12.5242 102.43C12.7142 102.57 12.8676 102.745 12.9842 102.955C13.1009 103.162 13.1592 103.422 13.1592 103.735C13.1592 104.045 13.1076 104.337 13.0042 104.61C12.9009 104.88 12.7492 105.12 12.5492 105.33C12.3526 105.537 12.1092 105.705 11.8192 105.835C11.5292 105.965 11.1976 106.043 10.8242 106.07L10.7642 106.805C10.7576 106.882 10.7242 106.952 10.6642 107.015C10.6042 107.082 10.5259 107.115 10.4292 107.115H9.97422L10.0642 106.045ZM11.9892 103.925C11.9892 103.798 11.9659 103.688 11.9192 103.595C11.8759 103.498 11.8126 103.413 11.7292 103.34C11.6492 103.267 11.5542 103.203 11.4442 103.15C11.3342 103.097 11.2142 103.048 11.0842 103.005L10.9142 105.035C11.2676 104.988 11.5342 104.87 11.7142 104.68C11.8976 104.487 11.9892 104.235 11.9892 103.925ZM9.55922 100.655C9.55922 100.782 9.58088 100.893 9.62422 100.99C9.66755 101.087 9.72755 101.173 9.80422 101.25C9.88422 101.323 9.97755 101.39 10.0842 101.45C10.1909 101.507 10.3076 101.558 10.4342 101.605L10.5892 99.755C10.4059 99.7783 10.2492 99.8183 10.1192 99.875C9.98922 99.9283 9.88255 99.995 9.79922 100.075C9.71588 100.155 9.65422 100.245 9.61422 100.345C9.57755 100.442 9.55922 100.545 9.55922 100.655ZM18.46 103.275H19.37V103.99C19.37 104.057 19.3483 104.115 19.305 104.165C19.2617 104.212 19.1983 104.235 19.115 104.235H18.46V106H17.38V104.235H14.33C14.2467 104.235 14.1733 104.21 14.11 104.16C14.0467 104.107 14.0067 104.042 13.99 103.965L13.865 103.34L17.29 98.765H18.46V103.275ZM17.38 100.91C17.38 100.803 17.3833 100.688 17.39 100.565C17.3967 100.442 17.4083 100.313 17.425 100.18L15.18 103.275H17.38V100.91ZM25.3008 102.385C25.3008 103.015 25.2324 103.563 25.0958 104.03C24.9624 104.493 24.7758 104.877 24.5358 105.18C24.2991 105.483 24.0174 105.71 23.6908 105.86C23.3674 106.007 23.0174 106.08 22.6408 106.08C22.2641 106.08 21.9141 106.007 21.5908 105.86C21.2708 105.71 20.9924 105.483 20.7558 105.18C20.5191 104.877 20.3341 104.493 20.2008 104.03C20.0674 103.563 20.0008 103.015 20.0008 102.385C20.0008 101.752 20.0674 101.203 20.2008 100.74C20.3341 100.277 20.5191 99.8933 20.7558 99.59C20.9924 99.2867 21.2708 99.0617 21.5908 98.915C21.9141 98.765 22.2641 98.69 22.6408 98.69C23.0174 98.69 23.3674 98.765 23.6908 98.915C24.0174 99.0617 24.2991 99.2867 24.5358 99.59C24.7758 99.8933 24.9624 100.277 25.0958 100.74C25.2324 101.203 25.3008 101.752 25.3008 102.385ZM24.0258 102.385C24.0258 101.862 23.9874 101.428 23.9108 101.085C23.8341 100.742 23.7308 100.468 23.6008 100.265C23.4741 100.062 23.3274 99.92 23.1608 99.84C22.9941 99.7567 22.8208 99.715 22.6408 99.715C22.4641 99.715 22.2924 99.7567 22.1258 99.84C21.9624 99.92 21.8174 100.062 21.6908 100.265C21.5641 100.468 21.4624 100.742 21.3858 101.085C21.3124 101.428 21.2758 101.862 21.2758 102.385C21.2758 102.908 21.3124 103.342 21.3858 103.685C21.4624 104.028 21.5641 104.302 21.6908 104.505C21.8174 104.708 21.9624 104.852 22.1258 104.935C22.2924 105.015 22.4641 105.055 22.6408 105.055C22.8208 105.055 22.9941 105.015 23.1608 104.935C23.3274 104.852 23.4741 104.708 23.6008 104.505C23.7308 104.302 23.8341 104.028 23.9108 103.685C23.9874 103.342 24.0258 102.908 24.0258 102.385ZM26.1516 105.24C26.1516 105.147 26.1682 105.06 26.2016 104.98C26.2382 104.897 26.2882 104.825 26.3516 104.765C26.4149 104.702 26.4916 104.653 26.5816 104.62C26.6716 104.583 26.7699 104.565 26.8766 104.565C27.0032 104.565 27.1132 104.588 27.2066 104.635C27.2999 104.678 27.3782 104.74 27.4416 104.82C27.5049 104.897 27.5516 104.987 27.5816 105.09C27.6116 105.19 27.6266 105.297 27.6266 105.41C27.6266 105.57 27.6016 105.738 27.5516 105.915C27.5049 106.092 27.4349 106.268 27.3416 106.445C27.2482 106.622 27.1332 106.793 26.9966 106.96C26.8599 107.127 26.7032 107.28 26.5266 107.42L26.3116 107.225C26.2516 107.175 26.2216 107.113 26.2216 107.04C26.2216 107.013 26.2299 106.983 26.2466 106.95C26.2666 106.917 26.2899 106.887 26.3166 106.86C26.3532 106.82 26.3982 106.77 26.4516 106.71C26.5049 106.653 26.5582 106.587 26.6116 106.51C26.6649 106.437 26.7132 106.355 26.7566 106.265C26.8032 106.178 26.8366 106.085 26.8566 105.985C26.7532 105.985 26.6582 105.967 26.5716 105.93C26.4849 105.89 26.4099 105.837 26.3466 105.77C26.2866 105.703 26.2382 105.625 26.2016 105.535C26.1682 105.445 26.1516 105.347 26.1516 105.24ZM33.7477 102.385C33.7477 103.015 33.6793 103.563 33.5427 104.03C33.4093 104.493 33.2227 104.877 32.9827 105.18C32.746 105.483 32.4643 105.71 32.1377 105.86C31.8143 106.007 31.4643 106.08 31.0877 106.08C30.711 106.08 30.361 106.007 30.0377 105.86C29.7177 105.71 29.4393 105.483 29.2027 105.18C28.966 104.877 28.781 104.493 28.6477 104.03C28.5143 103.563 28.4477 103.015 28.4477 102.385C28.4477 101.752 28.5143 101.203 28.6477 100.74C28.781 100.277 28.966 99.8933 29.2027 99.59C29.4393 99.2867 29.7177 99.0617 30.0377 98.915C30.361 98.765 30.711 98.69 31.0877 98.69C31.4643 98.69 31.8143 98.765 32.1377 98.915C32.4643 99.0617 32.746 99.2867 32.9827 99.59C33.2227 99.8933 33.4093 100.277 33.5427 100.74C33.6793 101.203 33.7477 101.752 33.7477 102.385ZM32.4727 102.385C32.4727 101.862 32.4343 101.428 32.3577 101.085C32.281 100.742 32.1777 100.468 32.0477 100.265C31.921 100.062 31.7743 99.92 31.6077 99.84C31.441 99.7567 31.2677 99.715 31.0877 99.715C30.911 99.715 30.7393 99.7567 30.5727 99.84C30.4093 99.92 30.2643 100.062 30.1377 100.265C30.011 100.468 29.9093 100.742 29.8327 101.085C29.7593 101.428 29.7227 101.862 29.7227 102.385C29.7227 102.908 29.7593 103.342 29.8327 103.685C29.9093 104.028 30.011 104.302 30.1377 104.505C30.2643 104.708 30.4093 104.852 30.5727 104.935C30.7393 105.015 30.911 105.055 31.0877 105.055C31.2677 105.055 31.441 105.015 31.6077 104.935C31.7743 104.852 31.921 104.708 32.0477 104.505C32.1777 104.302 32.281 104.028 32.3577 103.685C32.4343 103.342 32.4727 102.908 32.4727 102.385ZM39.7484 102.385C39.7484 103.015 39.6801 103.563 39.5434 104.03C39.4101 104.493 39.2234 104.877 38.9834 105.18C38.7468 105.483 38.4651 105.71 38.1384 105.86C37.8151 106.007 37.4651 106.08 37.0884 106.08C36.7118 106.08 36.3618 106.007 36.0384 105.86C35.7184 105.71 35.4401 105.483 35.2034 105.18C34.9668 104.877 34.7818 104.493 34.6484 104.03C34.5151 103.563 34.4484 103.015 34.4484 102.385C34.4484 101.752 34.5151 101.203 34.6484 100.74C34.7818 100.277 34.9668 99.8933 35.2034 99.59C35.4401 99.2867 35.7184 99.0617 36.0384 98.915C36.3618 98.765 36.7118 98.69 37.0884 98.69C37.4651 98.69 37.8151 98.765 38.1384 98.915C38.4651 99.0617 38.7468 99.2867 38.9834 99.59C39.2234 99.8933 39.4101 100.277 39.5434 100.74C39.6801 101.203 39.7484 101.752 39.7484 102.385ZM38.4734 102.385C38.4734 101.862 38.4351 101.428 38.3584 101.085C38.2818 100.742 38.1784 100.468 38.0484 100.265C37.9218 100.062 37.7751 99.92 37.6084 99.84C37.4418 99.7567 37.2684 99.715 37.0884 99.715C36.9118 99.715 36.7401 99.7567 36.5734 99.84C36.4101 99.92 36.2651 100.062 36.1384 100.265C36.0118 100.468 35.9101 100.742 35.8334 101.085C35.7601 101.428 35.7234 101.862 35.7234 102.385C35.7234 102.908 35.7601 103.342 35.8334 103.685C35.9101 104.028 36.0118 104.302 36.1384 104.505C36.2651 104.708 36.4101 104.852 36.5734 104.935C36.7401 105.015 36.9118 105.055 37.0884 105.055C37.2684 105.055 37.4418 105.015 37.6084 104.935C37.7751 104.852 37.9218 104.708 38.0484 104.505C38.1784 104.302 38.2818 104.028 38.3584 103.685C38.4351 103.342 38.4734 102.908 38.4734 102.385ZM45.7492 102.385C45.7492 103.015 45.6809 103.563 45.5442 104.03C45.4109 104.493 45.2242 104.877 44.9842 105.18C44.7476 105.483 44.4659 105.71 44.1392 105.86C43.8159 106.007 43.4659 106.08 43.0892 106.08C42.7126 106.08 42.3626 106.007 42.0392 105.86C41.7192 105.71 41.4409 105.483 41.2042 105.18C40.9676 104.877 40.7826 104.493 40.6492 104.03C40.5159 103.563 40.4492 103.015 40.4492 102.385C40.4492 101.752 40.5159 101.203 40.6492 100.74C40.7826 100.277 40.9676 99.8933 41.2042 99.59C41.4409 99.2867 41.7192 99.0617 42.0392 98.915C42.3626 98.765 42.7126 98.69 43.0892 98.69C43.4659 98.69 43.8159 98.765 44.1392 98.915C44.4659 99.0617 44.7476 99.2867 44.9842 99.59C45.2242 99.8933 45.4109 100.277 45.5442 100.74C45.6809 101.203 45.7492 101.752 45.7492 102.385ZM44.4742 102.385C44.4742 101.862 44.4359 101.428 44.3592 101.085C44.2826 100.742 44.1792 100.468 44.0492 100.265C43.9226 100.062 43.7759 99.92 43.6092 99.84C43.4426 99.7567 43.2692 99.715 43.0892 99.715C42.9126 99.715 42.7409 99.7567 42.5742 99.84C42.4109 99.92 42.2659 100.062 42.1392 100.265C42.0126 100.468 41.9109 100.742 41.8342 101.085C41.7609 101.428 41.7242 101.862 41.7242 102.385C41.7242 102.908 41.7609 103.342 41.8342 103.685C41.9109 104.028 42.0126 104.302 42.1392 104.505C42.2659 104.708 42.4109 104.852 42.5742 104.935C42.7409 105.015 42.9126 105.055 43.0892 105.055C43.2692 105.055 43.4426 105.015 43.6092 104.935C43.7759 104.852 43.9226 104.708 44.0492 104.505C44.1792 104.302 44.2826 104.028 44.3592 103.685C44.4359 103.342 44.4742 102.908 44.4742 102.385Z" fill="#A0A4A8"/>
<path d="M10.0642 138.045C9.67422 137.992 9.30755 137.885 8.96422 137.725C8.62422 137.565 8.33422 137.367 8.09422 137.13L8.47422 136.565C8.50755 136.515 8.55088 136.475 8.60422 136.445C8.66088 136.412 8.71922 136.395 8.77922 136.395C8.85255 136.395 8.93088 136.422 9.01422 136.475C9.09755 136.525 9.19255 136.585 9.29922 136.655C9.40588 136.725 9.52755 136.795 9.66422 136.865C9.80088 136.935 9.96255 136.987 10.1492 137.02L10.3392 134.78C10.1026 134.713 9.86755 134.635 9.63422 134.545C9.40422 134.455 9.19588 134.337 9.00922 134.19C8.82588 134.04 8.67755 133.852 8.56422 133.625C8.45088 133.398 8.39422 133.115 8.39422 132.775C8.39422 132.522 8.44422 132.275 8.54422 132.035C8.64755 131.792 8.79588 131.575 8.98922 131.385C9.18255 131.195 9.42088 131.038 9.70422 130.915C9.98755 130.792 10.3126 130.722 10.6792 130.705L10.7342 130.075C10.7409 129.995 10.7742 129.923 10.8342 129.86C10.8942 129.797 10.9726 129.765 11.0692 129.765H11.5242L11.4392 130.75C11.7926 130.807 12.0976 130.907 12.3542 131.05C12.6109 131.193 12.8342 131.355 13.0242 131.535L12.7242 131.99C12.6776 132.057 12.6309 132.107 12.5842 132.14C12.5376 132.173 12.4809 132.19 12.4142 132.19C12.3642 132.19 12.3042 132.175 12.2342 132.145C12.1676 132.112 12.0892 132.073 11.9992 132.03C11.9126 131.983 11.8159 131.937 11.7092 131.89C11.6026 131.843 11.4842 131.805 11.3542 131.775L11.1792 133.845C11.4192 133.918 11.6559 134 11.8892 134.09C12.1259 134.177 12.3376 134.29 12.5242 134.43C12.7142 134.57 12.8676 134.745 12.9842 134.955C13.1009 135.162 13.1592 135.422 13.1592 135.735C13.1592 136.045 13.1076 136.337 13.0042 136.61C12.9009 136.88 12.7492 137.12 12.5492 137.33C12.3526 137.537 12.1092 137.705 11.8192 137.835C11.5292 137.965 11.1976 138.043 10.8242 138.07L10.7642 138.805C10.7576 138.882 10.7242 138.952 10.6642 139.015C10.6042 139.082 10.5259 139.115 10.4292 139.115H9.97422L10.0642 138.045ZM11.9892 135.925C11.9892 135.798 11.9659 135.688 11.9192 135.595C11.8759 135.498 11.8126 135.413 11.7292 135.34C11.6492 135.267 11.5542 135.203 11.4442 135.15C11.3342 135.097 11.2142 135.048 11.0842 135.005L10.9142 137.035C11.2676 136.988 11.5342 136.87 11.7142 136.68C11.8976 136.487 11.9892 136.235 11.9892 135.925ZM9.55922 132.655C9.55922 132.782 9.58088 132.893 9.62422 132.99C9.66755 133.087 9.72755 133.173 9.80422 133.25C9.88422 133.323 9.97755 133.39 10.0842 133.45C10.1909 133.507 10.3076 133.558 10.4342 133.605L10.5892 131.755C10.4059 131.778 10.2492 131.818 10.1192 131.875C9.98922 131.928 9.88255 131.995 9.79922 132.075C9.71588 132.155 9.65422 132.245 9.61422 132.345C9.57755 132.442 9.55922 132.545 9.55922 132.655ZM16.76 130.69C17.0933 130.69 17.3983 130.74 17.675 130.84C17.9517 130.937 18.1883 131.075 18.385 131.255C18.5817 131.435 18.735 131.652 18.845 131.905C18.955 132.158 19.01 132.44 19.01 132.75C19.01 133.017 18.97 133.263 18.89 133.49C18.8133 133.717 18.7083 133.933 18.575 134.14C18.445 134.347 18.2917 134.547 18.115 134.74C17.9383 134.933 17.7533 135.13 17.56 135.33L15.93 136.995C16.09 136.948 16.2467 136.913 16.4 136.89C16.5533 136.863 16.7 136.85 16.84 136.85H18.695C18.8283 136.85 18.9333 136.888 19.01 136.965C19.09 137.038 19.13 137.137 19.13 137.26V138H14.17V137.59C14.17 137.507 14.1867 137.42 14.22 137.33C14.2567 137.24 14.3133 137.157 14.39 137.08L16.585 134.88C16.7683 134.693 16.9317 134.515 17.075 134.345C17.2217 134.175 17.3433 134.007 17.44 133.84C17.54 133.673 17.615 133.505 17.665 133.335C17.7183 133.162 17.745 132.98 17.745 132.79C17.745 132.617 17.72 132.465 17.67 132.335C17.62 132.202 17.5483 132.09 17.455 132C17.3617 131.91 17.25 131.843 17.12 131.8C16.9933 131.753 16.85 131.73 16.69 131.73C16.3933 131.73 16.1483 131.805 15.955 131.955C15.765 132.105 15.6317 132.307 15.555 132.56C15.5183 132.687 15.4633 132.778 15.39 132.835C15.3167 132.888 15.2233 132.915 15.11 132.915C15.06 132.915 15.005 132.91 14.945 132.9L14.295 132.785C14.345 132.438 14.4417 132.135 14.585 131.875C14.7283 131.612 14.9067 131.393 15.12 131.22C15.3367 131.043 15.5833 130.912 15.86 130.825C16.14 130.735 16.44 130.69 16.76 130.69ZM25.3008 134.385C25.3008 135.015 25.2324 135.563 25.0958 136.03C24.9624 136.493 24.7758 136.877 24.5358 137.18C24.2991 137.483 24.0174 137.71 23.6908 137.86C23.3674 138.007 23.0174 138.08 22.6408 138.08C22.2641 138.08 21.9141 138.007 21.5908 137.86C21.2708 137.71 20.9924 137.483 20.7558 137.18C20.5191 136.877 20.3341 136.493 20.2008 136.03C20.0674 135.563 20.0008 135.015 20.0008 134.385C20.0008 133.752 20.0674 133.203 20.2008 132.74C20.3341 132.277 20.5191 131.893 20.7558 131.59C20.9924 131.287 21.2708 131.062 21.5908 130.915C21.9141 130.765 22.2641 130.69 22.6408 130.69C23.0174 130.69 23.3674 130.765 23.6908 130.915C24.0174 131.062 24.2991 131.287 24.5358 131.59C24.7758 131.893 24.9624 132.277 25.0958 132.74C25.2324 133.203 25.3008 133.752 25.3008 134.385ZM24.0258 134.385C24.0258 133.862 23.9874 133.428 23.9108 133.085C23.8341 132.742 23.7308 132.468 23.6008 132.265C23.4741 132.062 23.3274 131.92 23.1608 131.84C22.9941 131.757 22.8208 131.715 22.6408 131.715C22.4641 131.715 22.2924 131.757 22.1258 131.84C21.9624 131.92 21.8174 132.062 21.6908 132.265C21.5641 132.468 21.4624 132.742 21.3858 133.085C21.3124 133.428 21.2758 133.862 21.2758 134.385C21.2758 134.908 21.3124 135.342 21.3858 135.685C21.4624 136.028 21.5641 136.302 21.6908 136.505C21.8174 136.708 21.9624 136.852 22.1258 136.935C22.2924 137.015 22.4641 137.055 22.6408 137.055C22.8208 137.055 22.9941 137.015 23.1608 136.935C23.3274 136.852 23.4741 136.708 23.6008 136.505C23.7308 136.302 23.8341 136.028 23.9108 135.685C23.9874 135.342 24.0258 134.908 24.0258 134.385ZM26.1516 137.24C26.1516 137.147 26.1682 137.06 26.2016 136.98C26.2382 136.897 26.2882 136.825 26.3516 136.765C26.4149 136.702 26.4916 136.653 26.5816 136.62C26.6716 136.583 26.7699 136.565 26.8766 136.565C27.0032 136.565 27.1132 136.588 27.2066 136.635C27.2999 136.678 27.3782 136.74 27.4416 136.82C27.5049 136.897 27.5516 136.987 27.5816 137.09C27.6116 137.19 27.6266 137.297 27.6266 137.41C27.6266 137.57 27.6016 137.738 27.5516 137.915C27.5049 138.092 27.4349 138.268 27.3416 138.445C27.2482 138.622 27.1332 138.793 26.9966 138.96C26.8599 139.127 26.7032 139.28 26.5266 139.42L26.3116 139.225C26.2516 139.175 26.2216 139.113 26.2216 139.04C26.2216 139.013 26.2299 138.983 26.2466 138.95C26.2666 138.917 26.2899 138.887 26.3166 138.86C26.3532 138.82 26.3982 138.77 26.4516 138.71C26.5049 138.653 26.5582 138.587 26.6116 138.51C26.6649 138.437 26.7132 138.355 26.7566 138.265C26.8032 138.178 26.8366 138.085 26.8566 137.985C26.7532 137.985 26.6582 137.967 26.5716 137.93C26.4849 137.89 26.4099 137.837 26.3466 137.77C26.2866 137.703 26.2382 137.625 26.2016 137.535C26.1682 137.445 26.1516 137.347 26.1516 137.24ZM33.7477 134.385C33.7477 135.015 33.6793 135.563 33.5427 136.03C33.4093 136.493 33.2227 136.877 32.9827 137.18C32.746 137.483 32.4643 137.71 32.1377 137.86C31.8143 138.007 31.4643 138.08 31.0877 138.08C30.711 138.08 30.361 138.007 30.0377 137.86C29.7177 137.71 29.4393 137.483 29.2027 137.18C28.966 136.877 28.781 136.493 28.6477 136.03C28.5143 135.563 28.4477 135.015 28.4477 134.385C28.4477 133.752 28.5143 133.203 28.6477 132.74C28.781 132.277 28.966 131.893 29.2027 131.59C29.4393 131.287 29.7177 131.062 30.0377 130.915C30.361 130.765 30.711 130.69 31.0877 130.69C31.4643 130.69 31.8143 130.765 32.1377 130.915C32.4643 131.062 32.746 131.287 32.9827 131.59C33.2227 131.893 33.4093 132.277 33.5427 132.74C33.6793 133.203 33.7477 133.752 33.7477 134.385ZM32.4727 134.385C32.4727 133.862 32.4343 133.428 32.3577 133.085C32.281 132.742 32.1777 132.468 32.0477 132.265C31.921 132.062 31.7743 131.92 31.6077 131.84C31.441 131.757 31.2677 131.715 31.0877 131.715C30.911 131.715 30.7393 131.757 30.5727 131.84C30.4093 131.92 30.2643 132.062 30.1377 132.265C30.011 132.468 29.9093 132.742 29.8327 133.085C29.7593 133.428 29.7227 133.862 29.7227 134.385C29.7227 134.908 29.7593 135.342 29.8327 135.685C29.9093 136.028 30.011 136.302 30.1377 136.505C30.2643 136.708 30.4093 136.852 30.5727 136.935C30.7393 137.015 30.911 137.055 31.0877 137.055C31.2677 137.055 31.441 137.015 31.6077 136.935C31.7743 136.852 31.921 136.708 32.0477 136.505C32.1777 136.302 32.281 136.028 32.3577 135.685C32.4343 135.342 32.4727 134.908 32.4727 134.385ZM39.7484 134.385C39.7484 135.015 39.6801 135.563 39.5434 136.03C39.4101 136.493 39.2234 136.877 38.9834 137.18C38.7468 137.483 38.4651 137.71 38.1384 137.86C37.8151 138.007 37.4651 138.08 37.0884 138.08C36.7118 138.08 36.3618 138.007 36.0384 137.86C35.7184 137.71 35.4401 137.483 35.2034 137.18C34.9668 136.877 34.7818 136.493 34.6484 136.03C34.5151 135.563 34.4484 135.015 34.4484 134.385C34.4484 133.752 34.5151 133.203 34.6484 132.74C34.7818 132.277 34.9668 131.893 35.2034 131.59C35.4401 131.287 35.7184 131.062 36.0384 130.915C36.3618 130.765 36.7118 130.69 37.0884 130.69C37.4651 130.69 37.8151 130.765 38.1384 130.915C38.4651 131.062 38.7468 131.287 38.9834 131.59C39.2234 131.893 39.4101 132.277 39.5434 132.74C39.6801 133.203 39.7484 133.752 39.7484 134.385ZM38.4734 134.385C38.4734 133.862 38.4351 133.428 38.3584 133.085C38.2818 132.742 38.1784 132.468 38.0484 132.265C37.9218 132.062 37.7751 131.92 37.6084 131.84C37.4418 131.757 37.2684 131.715 37.0884 131.715C36.9118 131.715 36.7401 131.757 36.5734 131.84C36.4101 131.92 36.2651 132.062 36.1384 132.265C36.0118 132.468 35.9101 132.742 35.8334 133.085C35.7601 133.428 35.7234 133.862 35.7234 134.385C35.7234 134.908 35.7601 135.342 35.8334 135.685C35.9101 136.028 36.0118 136.302 36.1384 136.505C36.2651 136.708 36.4101 136.852 36.5734 136.935C36.7401 137.015 36.9118 137.055 37.0884 137.055C37.2684 137.055 37.4418 137.015 37.6084 136.935C37.7751 136.852 37.9218 136.708 38.0484 136.505C38.1784 136.302 38.2818 136.028 38.3584 135.685C38.4351 135.342 38.4734 134.908 38.4734 134.385ZM45.7492 134.385C45.7492 135.015 45.6809 135.563 45.5442 136.03C45.4109 136.493 45.2242 136.877 44.9842 137.18C44.7476 137.483 44.4659 137.71 44.1392 137.86C43.8159 138.007 43.4659 138.08 43.0892 138.08C42.7126 138.08 42.3626 138.007 42.0392 137.86C41.7192 137.71 41.4409 137.483 41.2042 137.18C40.9676 136.877 40.7826 136.493 40.6492 136.03C40.5159 135.563 40.4492 135.015 40.4492 134.385C40.4492 133.752 40.5159 133.203 40.6492 132.74C40.7826 132.277 40.9676 131.893 41.2042 131.59C41.4409 131.287 41.7192 131.062 42.0392 130.915C42.3626 130.765 42.7126 130.69 43.0892 130.69C43.4659 130.69 43.8159 130.765 44.1392 130.915C44.4659 131.062 44.7476 131.287 44.9842 131.59C45.2242 131.893 45.4109 132.277 45.5442 132.74C45.6809 133.203 45.7492 133.752 45.7492 134.385ZM44.4742 134.385C44.4742 133.862 44.4359 133.428 44.3592 133.085C44.2826 132.742 44.1792 132.468 44.0492 132.265C43.9226 132.062 43.7759 131.92 43.6092 131.84C43.4426 131.757 43.2692 131.715 43.0892 131.715C42.9126 131.715 42.7409 131.757 42.5742 131.84C42.4109 131.92 42.2659 132.062 42.1392 132.265C42.0126 132.468 41.9109 132.742 41.8342 133.085C41.7609 133.428 41.7242 133.862 41.7242 134.385C41.7242 134.908 41.7609 135.342 41.8342 135.685C41.9109 136.028 42.0126 136.302 42.1392 136.505C42.2659 136.708 42.4109 136.852 42.5742 136.935C42.7409 137.015 42.9126 137.055 43.0892 137.055C43.2692 137.055 43.4426 137.015 43.6092 136.935C43.7759 136.852 43.9226 136.708 44.0492 136.505C44.1792 136.302 44.2826 136.028 44.3592 135.685C44.4359 135.342 44.4742 134.908 44.4742 134.385Z" fill="#A0A4A8"/>
<path d="M36.5134 170.045C36.1234 169.992 35.7568 169.885 35.4134 169.725C35.0734 169.565 34.7834 169.367 34.5434 169.13L34.9234 168.565C34.9568 168.515 35.0001 168.475 35.0534 168.445C35.1101 168.412 35.1684 168.395 35.2284 168.395C35.3018 168.395 35.3801 168.422 35.4634 168.475C35.5468 168.525 35.6418 168.585 35.7484 168.655C35.8551 168.725 35.9768 168.795 36.1134 168.865C36.2501 168.935 36.4118 168.987 36.5984 169.02L36.7884 166.78C36.5518 166.713 36.3168 166.635 36.0834 166.545C35.8534 166.455 35.6451 166.337 35.4584 166.19C35.2751 166.04 35.1268 165.852 35.0134 165.625C34.9001 165.398 34.8434 165.115 34.8434 164.775C34.8434 164.522 34.8934 164.275 34.9934 164.035C35.0968 163.792 35.2451 163.575 35.4384 163.385C35.6318 163.195 35.8701 163.038 36.1534 162.915C36.4368 162.792 36.7618 162.722 37.1284 162.705L37.1834 162.075C37.1901 161.995 37.2234 161.923 37.2834 161.86C37.3434 161.797 37.4218 161.765 37.5184 161.765H37.9734L37.8884 162.75C38.2418 162.807 38.5468 162.907 38.8034 163.05C39.0601 163.193 39.2834 163.355 39.4734 163.535L39.1734 163.99C39.1268 164.057 39.0801 164.107 39.0334 164.14C38.9868 164.173 38.9301 164.19 38.8634 164.19C38.8134 164.19 38.7534 164.175 38.6834 164.145C38.6168 164.112 38.5384 164.073 38.4484 164.03C38.3618 163.983 38.2651 163.937 38.1584 163.89C38.0518 163.843 37.9334 163.805 37.8034 163.775L37.6284 165.845C37.8684 165.918 38.1051 166 38.3384 166.09C38.5751 166.177 38.7868 166.29 38.9734 166.43C39.1634 166.57 39.3168 166.745 39.4334 166.955C39.5501 167.162 39.6084 167.422 39.6084 167.735C39.6084 168.045 39.5568 168.337 39.4534 168.61C39.3501 168.88 39.1984 169.12 38.9984 169.33C38.8018 169.537 38.5584 169.705 38.2684 169.835C37.9784 169.965 37.6468 170.043 37.2734 170.07L37.2134 170.805C37.2068 170.882 37.1734 170.952 37.1134 171.015C37.0534 171.082 36.9751 171.115 36.8784 171.115H36.4234L36.5134 170.045ZM38.4384 167.925C38.4384 167.798 38.4151 167.688 38.3684 167.595C38.3251 167.498 38.2618 167.413 38.1784 167.34C38.0984 167.267 38.0034 167.203 37.8934 167.15C37.7834 167.097 37.6634 167.048 37.5334 167.005L37.3634 169.035C37.7168 168.988 37.9834 168.87 38.1634 168.68C38.3468 168.487 38.4384 168.235 38.4384 167.925ZM36.0084 164.655C36.0084 164.782 36.0301 164.893 36.0734 164.99C36.1168 165.087 36.1768 165.173 36.2534 165.25C36.3334 165.323 36.4268 165.39 36.5334 165.45C36.6401 165.507 36.7568 165.558 36.8834 165.605L37.0384 163.755C36.8551 163.778 36.6984 163.818 36.5684 163.875C36.4384 163.928 36.3318 163.995 36.2484 164.075C36.1651 164.155 36.1034 164.245 36.0634 164.345C36.0268 164.442 36.0084 164.545 36.0084 164.655ZM45.7492 166.385C45.7492 167.015 45.6809 167.563 45.5442 168.03C45.4109 168.493 45.2242 168.877 44.9842 169.18C44.7476 169.483 44.4659 169.71 44.1392 169.86C43.8159 170.007 43.4659 170.08 43.0892 170.08C42.7126 170.08 42.3626 170.007 42.0392 169.86C41.7192 169.71 41.4409 169.483 41.2042 169.18C40.9676 168.877 40.7826 168.493 40.6492 168.03C40.5159 167.563 40.4492 167.015 40.4492 166.385C40.4492 165.752 40.5159 165.203 40.6492 164.74C40.7826 164.277 40.9676 163.893 41.2042 163.59C41.4409 163.287 41.7192 163.062 42.0392 162.915C42.3626 162.765 42.7126 162.69 43.0892 162.69C43.4659 162.69 43.8159 162.765 44.1392 162.915C44.4659 163.062 44.7476 163.287 44.9842 163.59C45.2242 163.893 45.4109 164.277 45.5442 164.74C45.6809 165.203 45.7492 165.752 45.7492 166.385ZM44.4742 166.385C44.4742 165.862 44.4359 165.428 44.3592 165.085C44.2826 164.742 44.1792 164.468 44.0492 164.265C43.9226 164.062 43.7759 163.92 43.6092 163.84C43.4426 163.757 43.2692 163.715 43.0892 163.715C42.9126 163.715 42.7409 163.757 42.5742 163.84C42.4109 163.92 42.2659 164.062 42.1392 164.265C42.0126 164.468 41.9109 164.742 41.8342 165.085C41.7609 165.428 41.7242 165.862 41.7242 166.385C41.7242 166.908 41.7609 167.342 41.8342 167.685C41.9109 168.028 42.0126 168.302 42.1392 168.505C42.2659 168.708 42.4109 168.852 42.5742 168.935C42.7409 169.015 42.9126 169.055 43.0892 169.055C43.2692 169.055 43.4426 169.015 43.6092 168.935C43.7759 168.852 43.9226 168.708 44.0492 168.505C44.1792 168.302 44.2826 168.028 44.3592 167.685C44.4359 167.342 44.4742 166.908 44.4742 166.385Z" fill="#A0A4A8"/>
<path d="M58 6L492 6" stroke="#D7DBDE" stroke-linecap="round" stroke-dasharray="4 4"/>
<path d="M58 38L492 38" stroke="#D7DBDE" stroke-linecap="round" stroke-dasharray="4 4"/>
<path d="M58 70L492 70" stroke="#D7DBDE" stroke-linecap="round" stroke-dasharray="4 4"/>
<path d="M58 102L492 102" stroke="#D7DBDE" stroke-linecap="round" stroke-dasharray="4 4"/>
<path d="M58 134L492 134" stroke="#D7DBDE" stroke-linecap="round" stroke-dasharray="4 4"/>
<path d="M58 166L492 166" stroke="#D7DBDE" stroke-linecap="round"/>
<path d="M470 97C426.5 97 414 65 374 65C334 65 324 114 278 114C232 114 213.5 42 182 42C150.5 42 148.5 91 86 91C73 91 75 75.5 58 75.5" stroke="#336CFB" stroke-width="2" stroke-linecap="round"/>
<path d="M73.93 187.075H75.395V182.86C75.395 182.697 75.4 182.525 75.41 182.345L74.37 183.215C74.3266 183.252 74.2816 183.277 74.235 183.29C74.1916 183.303 74.1483 183.31 74.105 183.31C74.0383 183.31 73.9766 183.297 73.92 183.27C73.8666 183.24 73.8266 183.207 73.8 183.17L73.41 182.635L75.615 180.76H76.63V187.075H77.93V188H73.93V187.075ZM84.3593 185.43C84.3593 185.837 84.3093 186.203 84.2093 186.53C84.1093 186.857 83.9593 187.135 83.7593 187.365C83.5627 187.595 83.316 187.772 83.0193 187.895C82.7227 188.018 82.3777 188.08 81.9843 188.08C81.8043 188.08 81.6277 188.068 81.4543 188.045C81.281 188.025 81.0993 187.992 80.9093 187.945L80.9793 187.145C80.986 187.072 81.0127 187.013 81.0593 186.97C81.1093 186.923 81.181 186.9 81.2743 186.9C81.331 186.9 81.4043 186.912 81.4943 186.935C81.5877 186.958 81.7043 186.97 81.8443 186.97C82.0343 186.97 82.2027 186.943 82.3493 186.89C82.496 186.833 82.6177 186.745 82.7143 186.625C82.8143 186.505 82.8893 186.35 82.9393 186.16C82.9893 185.967 83.0143 185.733 83.0143 185.46V180.77H84.3593V185.43ZM87.0746 182.87V186.13C87.0746 186.443 87.1462 186.687 87.2896 186.86C87.4362 187.03 87.6546 187.115 87.9446 187.115C88.1579 187.115 88.3579 187.068 88.5446 186.975C88.7312 186.878 88.9079 186.747 89.0746 186.58V182.87H90.3096V188H89.5546C89.3946 188 89.2896 187.925 89.2396 187.775L89.1546 187.365C89.0479 187.472 88.9379 187.57 88.8246 187.66C88.7112 187.747 88.5896 187.822 88.4596 187.885C88.3329 187.945 88.1946 187.992 88.0446 188.025C87.8979 188.062 87.7396 188.08 87.5696 188.08C87.2896 188.08 87.0412 188.033 86.8246 187.94C86.6112 187.843 86.4312 187.708 86.2846 187.535C86.1379 187.362 86.0262 187.157 85.9496 186.92C85.8762 186.68 85.8396 186.417 85.8396 186.13V182.87H87.0746ZM93.1432 180.57V188H91.9082V180.57H93.1432ZM96.563 189.41C96.5263 189.497 96.478 189.562 96.418 189.605C96.3613 189.652 96.273 189.675 96.153 189.675H95.233L96.193 187.62L94.118 182.87H95.198C95.298 182.87 95.3747 182.893 95.428 182.94C95.4813 182.987 95.5213 183.04 95.548 183.1L96.643 185.76C96.6797 185.847 96.7113 185.937 96.738 186.03C96.7647 186.123 96.788 186.217 96.808 186.31C96.8347 186.213 96.863 186.12 96.893 186.03C96.9263 185.94 96.9613 185.848 96.998 185.755L98.028 183.1C98.0547 183.033 98.098 182.978 98.158 182.935C98.2213 182.892 98.2913 182.87 98.368 182.87H99.358L96.563 189.41Z" fill="#A0A4A8"/>
<path d="M86 166V172" stroke="#D7DBDE"/>
<circle cx="86" cy="91" r="4.5" fill="#A9C1FD" stroke="white" stroke-width="3"/>
<path d="M171.485 188.08C171.112 188.08 170.77 188.03 170.46 187.93C170.153 187.83 169.89 187.688 169.67 187.505C169.45 187.322 169.278 187.1 169.155 186.84C169.035 186.58 168.975 186.29 168.975 185.97C168.975 185.543 169.08 185.183 169.29 184.89C169.5 184.593 169.827 184.373 170.27 184.23C169.917 184.083 169.652 183.875 169.475 183.605C169.302 183.335 169.215 183.01 169.215 182.63C169.215 182.357 169.27 182.102 169.38 181.865C169.493 181.628 169.65 181.423 169.85 181.25C170.05 181.073 170.288 180.937 170.565 180.84C170.845 180.74 171.152 180.69 171.485 180.69C171.818 180.69 172.123 180.74 172.4 180.84C172.68 180.937 172.92 181.073 173.12 181.25C173.32 181.423 173.475 181.628 173.585 181.865C173.698 182.102 173.755 182.357 173.755 182.63C173.755 183.01 173.667 183.335 173.49 183.605C173.313 183.875 173.05 184.083 172.7 184.23C173.143 184.373 173.47 184.593 173.68 184.89C173.89 185.183 173.995 185.543 173.995 185.97C173.995 186.29 173.933 186.58 173.81 186.84C173.69 187.1 173.52 187.322 173.3 187.505C173.08 187.688 172.815 187.83 172.505 187.93C172.198 188.03 171.858 188.08 171.485 188.08ZM171.485 187.115C171.688 187.115 171.867 187.087 172.02 187.03C172.173 186.97 172.302 186.888 172.405 186.785C172.512 186.682 172.592 186.558 172.645 186.415C172.698 186.272 172.725 186.117 172.725 185.95C172.725 185.553 172.615 185.253 172.395 185.05C172.175 184.847 171.872 184.745 171.485 184.745C171.098 184.745 170.795 184.847 170.575 185.05C170.355 185.253 170.245 185.553 170.245 185.95C170.245 186.117 170.272 186.272 170.325 186.415C170.378 186.558 170.457 186.682 170.56 186.785C170.667 186.888 170.797 186.97 170.95 187.03C171.103 187.087 171.282 187.115 171.485 187.115ZM171.485 183.775C171.685 183.775 171.853 183.743 171.99 183.68C172.127 183.617 172.237 183.533 172.32 183.43C172.403 183.323 172.462 183.203 172.495 183.07C172.532 182.933 172.55 182.793 172.55 182.65C172.55 182.513 172.528 182.383 172.485 182.26C172.442 182.137 172.377 182.028 172.29 181.935C172.203 181.838 172.093 181.762 171.96 181.705C171.827 181.648 171.668 181.62 171.485 181.62C171.302 181.62 171.143 181.648 171.01 181.705C170.877 181.762 170.765 181.838 170.675 181.935C170.588 182.028 170.523 182.137 170.48 182.26C170.44 182.383 170.42 182.513 170.42 182.65C170.42 182.793 170.437 182.933 170.47 183.07C170.507 183.203 170.567 183.323 170.65 183.43C170.733 183.533 170.843 183.617 170.98 183.68C171.117 183.743 171.285 183.775 171.485 183.775ZM180.359 185.43C180.359 185.837 180.309 186.203 180.209 186.53C180.109 186.857 179.959 187.135 179.759 187.365C179.563 187.595 179.316 187.772 179.019 187.895C178.723 188.018 178.378 188.08 177.984 188.08C177.804 188.08 177.628 188.068 177.454 188.045C177.281 188.025 177.099 187.992 176.909 187.945L176.979 187.145C176.986 187.072 177.013 187.013 177.059 186.97C177.109 186.923 177.181 186.9 177.274 186.9C177.331 186.9 177.404 186.912 177.494 186.935C177.588 186.958 177.704 186.97 177.844 186.97C178.034 186.97 178.203 186.943 178.349 186.89C178.496 186.833 178.618 186.745 178.714 186.625C178.814 186.505 178.889 186.35 178.939 186.16C178.989 185.967 179.014 185.733 179.014 185.46V180.77H180.359V185.43ZM183.075 182.87V186.13C183.075 186.443 183.146 186.687 183.29 186.86C183.436 187.03 183.655 187.115 183.945 187.115C184.158 187.115 184.358 187.068 184.545 186.975C184.731 186.878 184.908 186.747 185.075 186.58V182.87H186.31V188H185.555C185.395 188 185.29 187.925 185.24 187.775L185.155 187.365C185.048 187.472 184.938 187.57 184.825 187.66C184.711 187.747 184.59 187.822 184.46 187.885C184.333 187.945 184.195 187.992 184.045 188.025C183.898 188.062 183.74 188.08 183.57 188.08C183.29 188.08 183.041 188.033 182.825 187.94C182.611 187.843 182.431 187.708 182.285 187.535C182.138 187.362 182.026 187.157 181.95 186.92C181.876 186.68 181.84 186.417 181.84 186.13V182.87H183.075ZM189.143 180.57V188H187.908V180.57H189.143ZM192.563 189.41C192.526 189.497 192.478 189.562 192.418 189.605C192.361 189.652 192.273 189.675 192.153 189.675H191.233L192.193 187.62L190.118 182.87H191.198C191.298 182.87 191.375 182.893 191.428 182.94C191.481 182.987 191.521 183.04 191.548 183.1L192.643 185.76C192.68 185.847 192.711 185.937 192.738 186.03C192.765 186.123 192.788 186.217 192.808 186.31C192.835 186.213 192.863 186.12 192.893 186.03C192.926 185.94 192.961 185.848 192.998 185.755L194.028 183.1C194.055 183.033 194.098 182.978 194.158 182.935C194.221 182.892 194.291 182.87 194.368 182.87H195.358L192.563 189.41Z" fill="#A0A4A8"/>
<path d="M182 166V172" stroke="#D7DBDE"/>
<circle cx="182" cy="42" r="4.5" fill="#A9C1FD" stroke="white" stroke-width="3"/>
<path d="M262.93 187.075H264.395V182.86C264.395 182.697 264.4 182.525 264.41 182.345L263.37 183.215C263.326 183.252 263.281 183.277 263.235 183.29C263.191 183.303 263.148 183.31 263.105 183.31C263.038 183.31 262.976 183.297 262.92 183.27C262.866 183.24 262.826 183.207 262.8 183.17L262.41 182.635L264.615 180.76H265.63V187.075H266.93V188H262.93V187.075ZM270.935 183.485C271.209 183.485 271.474 183.53 271.73 183.62C271.99 183.71 272.219 183.847 272.415 184.03C272.612 184.21 272.77 184.435 272.89 184.705C273.01 184.975 273.07 185.29 273.07 185.65C273.07 185.987 273.009 186.303 272.885 186.6C272.762 186.893 272.589 187.15 272.365 187.37C272.142 187.59 271.872 187.763 271.555 187.89C271.242 188.017 270.895 188.08 270.515 188.08C270.129 188.08 269.782 188.018 269.475 187.895C269.169 187.772 268.907 187.6 268.69 187.38C268.474 187.157 268.307 186.89 268.19 186.58C268.077 186.267 268.02 185.92 268.02 185.54C268.02 185.2 268.089 184.852 268.225 184.495C268.365 184.135 268.58 183.762 268.87 183.375L270.595 181.06C270.655 180.98 270.742 180.912 270.855 180.855C270.972 180.798 271.105 180.77 271.255 180.77H272.355L270.21 183.395C270.164 183.452 270.119 183.505 270.075 183.555C270.035 183.605 269.995 183.657 269.955 183.71C270.095 183.64 270.245 183.585 270.405 183.545C270.569 183.505 270.745 183.485 270.935 183.485ZM269.205 185.73C269.205 185.93 269.232 186.113 269.285 186.28C269.342 186.443 269.424 186.583 269.53 186.7C269.64 186.817 269.775 186.908 269.935 186.975C270.095 187.038 270.28 187.07 270.49 187.07C270.687 187.07 270.867 187.037 271.03 186.97C271.197 186.903 271.339 186.81 271.455 186.69C271.575 186.57 271.669 186.43 271.735 186.27C271.802 186.107 271.835 185.93 271.835 185.74C271.835 185.533 271.804 185.348 271.74 185.185C271.677 185.018 271.587 184.878 271.47 184.765C271.354 184.648 271.214 184.56 271.05 184.5C270.887 184.44 270.707 184.41 270.51 184.41C270.314 184.41 270.135 184.443 269.975 184.51C269.815 184.577 269.677 184.67 269.56 184.79C269.447 184.907 269.359 185.047 269.295 185.21C269.235 185.37 269.205 185.543 269.205 185.73ZM279.36 185.43C279.36 185.837 279.31 186.203 279.21 186.53C279.11 186.857 278.96 187.135 278.76 187.365C278.563 187.595 278.316 187.772 278.02 187.895C277.723 188.018 277.378 188.08 276.985 188.08C276.805 188.08 276.628 188.068 276.455 188.045C276.281 188.025 276.1 187.992 275.91 187.945L275.98 187.145C275.986 187.072 276.013 187.013 276.06 186.97C276.11 186.923 276.181 186.9 276.275 186.9C276.331 186.9 276.405 186.912 276.495 186.935C276.588 186.958 276.705 186.97 276.845 186.97C277.035 186.97 277.203 186.943 277.35 186.89C277.496 186.833 277.618 186.745 277.715 186.625C277.815 186.505 277.89 186.35 277.94 186.16C277.99 185.967 278.015 185.733 278.015 185.46V180.77H279.36V185.43ZM282.075 182.87V186.13C282.075 186.443 282.147 186.687 282.29 186.86C282.437 187.03 282.655 187.115 282.945 187.115C283.158 187.115 283.358 187.068 283.545 186.975C283.732 186.878 283.908 186.747 284.075 186.58V182.87H285.31V188H284.555C284.395 188 284.29 187.925 284.24 187.775L284.155 187.365C284.048 187.472 283.938 187.57 283.825 187.66C283.712 187.747 283.59 187.822 283.46 187.885C283.333 187.945 283.195 187.992 283.045 188.025C282.898 188.062 282.74 188.08 282.57 188.08C282.29 188.08 282.042 188.033 281.825 187.94C281.612 187.843 281.432 187.708 281.285 187.535C281.138 187.362 281.027 187.157 280.95 186.92C280.877 186.68 280.84 186.417 280.84 186.13V182.87H282.075ZM288.144 180.57V188H286.909V180.57H288.144ZM291.563 189.41C291.527 189.497 291.478 189.562 291.418 189.605C291.362 189.652 291.273 189.675 291.153 189.675H290.233L291.193 187.62L289.118 182.87H290.198C290.298 182.87 290.375 182.893 290.428 182.94C290.482 182.987 290.522 183.04 290.548 183.1L291.643 185.76C291.68 185.847 291.712 185.937 291.738 186.03C291.765 186.123 291.788 186.217 291.808 186.31C291.835 186.213 291.863 186.12 291.893 186.03C291.927 185.94 291.962 185.848 291.998 185.755L293.028 183.1C293.055 183.033 293.098 182.978 293.158 182.935C293.222 182.892 293.292 182.87 293.368 182.87H294.358L291.563 189.41Z" fill="#A0A4A8"/>
<path d="M278 166V172" stroke="#D7DBDE"/>
<circle cx="278" cy="114" r="4.5" fill="#A9C1FD" stroke="white" stroke-width="3"/>
<path d="M360.595 180.69C360.928 180.69 361.233 180.74 361.51 180.84C361.786 180.937 362.023 181.075 362.22 181.255C362.416 181.435 362.57 181.652 362.68 181.905C362.79 182.158 362.845 182.44 362.845 182.75C362.845 183.017 362.805 183.263 362.725 183.49C362.648 183.717 362.543 183.933 362.41 184.14C362.28 184.347 362.126 184.547 361.95 184.74C361.773 184.933 361.588 185.13 361.395 185.33L359.765 186.995C359.925 186.948 360.081 186.913 360.235 186.89C360.388 186.863 360.535 186.85 360.675 186.85H362.53C362.663 186.85 362.768 186.888 362.845 186.965C362.925 187.038 362.965 187.137 362.965 187.26V188H358.005V187.59C358.005 187.507 358.021 187.42 358.055 187.33C358.091 187.24 358.148 187.157 358.225 187.08L360.42 184.88C360.603 184.693 360.766 184.515 360.91 184.345C361.056 184.175 361.178 184.007 361.275 183.84C361.375 183.673 361.45 183.505 361.5 183.335C361.553 183.162 361.58 182.98 361.58 182.79C361.58 182.617 361.555 182.465 361.505 182.335C361.455 182.202 361.383 182.09 361.29 182C361.196 181.91 361.085 181.843 360.955 181.8C360.828 181.753 360.685 181.73 360.525 181.73C360.228 181.73 359.983 181.805 359.79 181.955C359.6 182.105 359.466 182.307 359.39 182.56C359.353 182.687 359.298 182.778 359.225 182.835C359.151 182.888 359.058 182.915 358.945 182.915C358.895 182.915 358.84 182.91 358.78 182.9L358.13 182.785C358.18 182.438 358.276 182.135 358.42 181.875C358.563 181.612 358.741 181.393 358.955 181.22C359.171 181.043 359.418 180.912 359.695 180.825C359.975 180.735 360.275 180.69 360.595 180.69ZM368.295 185.275H369.205V185.99C369.205 186.057 369.184 186.115 369.14 186.165C369.097 186.212 369.034 186.235 368.95 186.235H368.295V188H367.215V186.235H364.165C364.082 186.235 364.009 186.21 363.945 186.16C363.882 186.107 363.842 186.042 363.825 185.965L363.7 185.34L367.125 180.765H368.295V185.275ZM367.215 182.91C367.215 182.803 367.219 182.688 367.225 182.565C367.232 182.442 367.244 182.313 367.26 182.18L365.015 185.275H367.215V182.91ZM375.36 185.43C375.36 185.837 375.31 186.203 375.21 186.53C375.11 186.857 374.96 187.135 374.76 187.365C374.563 187.595 374.316 187.772 374.02 187.895C373.723 188.018 373.378 188.08 372.985 188.08C372.805 188.08 372.628 188.068 372.455 188.045C372.281 188.025 372.1 187.992 371.91 187.945L371.98 187.145C371.986 187.072 372.013 187.013 372.06 186.97C372.11 186.923 372.181 186.9 372.275 186.9C372.331 186.9 372.405 186.912 372.495 186.935C372.588 186.958 372.705 186.97 372.845 186.97C373.035 186.97 373.203 186.943 373.35 186.89C373.496 186.833 373.618 186.745 373.715 186.625C373.815 186.505 373.89 186.35 373.94 186.16C373.99 185.967 374.015 185.733 374.015 185.46V180.77H375.36V185.43ZM378.075 182.87V186.13C378.075 186.443 378.147 186.687 378.29 186.86C378.437 187.03 378.655 187.115 378.945 187.115C379.158 187.115 379.358 187.068 379.545 186.975C379.732 186.878 379.908 186.747 380.075 186.58V182.87H381.31V188H380.555C380.395 188 380.29 187.925 380.24 187.775L380.155 187.365C380.048 187.472 379.938 187.57 379.825 187.66C379.712 187.747 379.59 187.822 379.46 187.885C379.333 187.945 379.195 187.992 379.045 188.025C378.898 188.062 378.74 188.08 378.57 188.08C378.29 188.08 378.042 188.033 377.825 187.94C377.612 187.843 377.432 187.708 377.285 187.535C377.138 187.362 377.027 187.157 376.95 186.92C376.877 186.68 376.84 186.417 376.84 186.13V182.87H378.075ZM384.144 180.57V188H382.909V180.57H384.144ZM387.563 189.41C387.527 189.497 387.478 189.562 387.418 189.605C387.362 189.652 387.273 189.675 387.153 189.675H386.233L387.193 187.62L385.118 182.87H386.198C386.298 182.87 386.375 182.893 386.428 182.94C386.482 182.987 386.522 183.04 386.548 183.1L387.643 185.76C387.68 185.847 387.712 185.937 387.738 186.03C387.765 186.123 387.788 186.217 387.808 186.31C387.835 186.213 387.863 186.12 387.893 186.03C387.927 185.94 387.962 185.848 387.998 185.755L389.028 183.1C389.055 183.033 389.098 182.978 389.158 182.935C389.222 182.892 389.292 182.87 389.368 182.87H390.358L387.563 189.41Z" fill="#A0A4A8"/>
<path d="M374 166V172" stroke="#D7DBDE"/>
<circle cx="374" cy="65" r="4.5" fill="#A9C1FD" stroke="white" stroke-width="3"/>
<path d="M456.71 180.69C457.043 180.69 457.343 180.738 457.61 180.835C457.88 180.928 458.11 181.06 458.3 181.23C458.49 181.397 458.635 181.593 458.735 181.82C458.838 182.047 458.89 182.292 458.89 182.555C458.89 182.785 458.863 182.988 458.81 183.165C458.76 183.338 458.685 183.49 458.585 183.62C458.488 183.75 458.368 183.86 458.225 183.95C458.085 184.04 457.925 184.115 457.745 184.175C458.178 184.312 458.501 184.52 458.715 184.8C458.928 185.08 459.035 185.432 459.035 185.855C459.035 186.215 458.968 186.533 458.835 186.81C458.701 187.087 458.521 187.32 458.295 187.51C458.068 187.697 457.805 187.838 457.505 187.935C457.208 188.032 456.893 188.08 456.56 188.08C456.196 188.08 455.88 188.038 455.61 187.955C455.34 187.872 455.105 187.748 454.905 187.585C454.705 187.422 454.535 187.222 454.395 186.985C454.255 186.748 454.135 186.475 454.035 186.165L454.58 185.94C454.673 185.9 454.768 185.88 454.865 185.88C454.951 185.88 455.028 185.898 455.095 185.935C455.165 185.972 455.218 186.025 455.255 186.095C455.315 186.212 455.38 186.327 455.45 186.44C455.523 186.553 455.61 186.655 455.71 186.745C455.81 186.832 455.926 186.903 456.06 186.96C456.196 187.013 456.358 187.04 456.545 187.04C456.755 187.04 456.938 187.007 457.095 186.94C457.251 186.87 457.381 186.78 457.485 186.67C457.591 186.56 457.67 186.438 457.72 186.305C457.773 186.168 457.8 186.032 457.8 185.895C457.8 185.722 457.781 185.565 457.745 185.425C457.708 185.282 457.631 185.16 457.515 185.06C457.398 184.96 457.23 184.882 457.01 184.825C456.793 184.768 456.501 184.74 456.135 184.74V183.86C456.438 183.857 456.69 183.828 456.89 183.775C457.09 183.722 457.248 183.648 457.365 183.555C457.485 183.458 457.568 183.343 457.615 183.21C457.661 183.077 457.685 182.93 457.685 182.77C457.685 182.427 457.591 182.168 457.405 181.995C457.218 181.818 456.963 181.73 456.64 181.73C456.346 181.73 456.103 181.808 455.91 181.965C455.716 182.118 455.581 182.317 455.505 182.56C455.465 182.687 455.41 182.778 455.34 182.835C455.27 182.888 455.178 182.915 455.065 182.915C455.011 182.915 454.955 182.91 454.895 182.9L454.245 182.785C454.295 182.438 454.391 182.135 454.535 181.875C454.678 181.612 454.856 181.393 455.07 181.22C455.286 181.043 455.533 180.912 455.81 180.825C456.09 180.735 456.39 180.69 456.71 180.69ZM460.93 187.075H462.395V182.86C462.395 182.697 462.4 182.525 462.41 182.345L461.37 183.215C461.327 183.252 461.282 183.277 461.235 183.29C461.192 183.303 461.149 183.31 461.105 183.31C461.039 183.31 460.977 183.297 460.92 183.27C460.867 183.24 460.827 183.207 460.8 183.17L460.41 182.635L462.615 180.76H463.63V187.075H464.93V188H460.93V187.075ZM471.36 185.43C471.36 185.837 471.31 186.203 471.21 186.53C471.11 186.857 470.96 187.135 470.76 187.365C470.563 187.595 470.316 187.772 470.02 187.895C469.723 188.018 469.378 188.08 468.985 188.08C468.805 188.08 468.628 188.068 468.455 188.045C468.281 188.025 468.1 187.992 467.91 187.945L467.98 187.145C467.986 187.072 468.013 187.013 468.06 186.97C468.11 186.923 468.181 186.9 468.275 186.9C468.331 186.9 468.405 186.912 468.495 186.935C468.588 186.958 468.705 186.97 468.845 186.97C469.035 186.97 469.203 186.943 469.35 186.89C469.496 186.833 469.618 186.745 469.715 186.625C469.815 186.505 469.89 186.35 469.94 186.16C469.99 185.967 470.015 185.733 470.015 185.46V180.77H471.36V185.43ZM474.075 182.87V186.13C474.075 186.443 474.147 186.687 474.29 186.86C474.437 187.03 474.655 187.115 474.945 187.115C475.158 187.115 475.358 187.068 475.545 186.975C475.732 186.878 475.908 186.747 476.075 186.58V182.87H477.31V188H476.555C476.395 188 476.29 187.925 476.24 187.775L476.155 187.365C476.048 187.472 475.938 187.57 475.825 187.66C475.712 187.747 475.59 187.822 475.46 187.885C475.333 187.945 475.195 187.992 475.045 188.025C474.898 188.062 474.74 188.08 474.57 188.08C474.29 188.08 474.042 188.033 473.825 187.94C473.612 187.843 473.432 187.708 473.285 187.535C473.138 187.362 473.027 187.157 472.95 186.92C472.877 186.68 472.84 186.417 472.84 186.13V182.87H474.075ZM480.144 180.57V188H478.909V180.57H480.144ZM483.563 189.41C483.527 189.497 483.478 189.562 483.418 189.605C483.362 189.652 483.273 189.675 483.153 189.675H482.233L483.193 187.62L481.118 182.87H482.198C482.298 182.87 482.375 182.893 482.428 182.94C482.482 182.987 482.522 183.04 482.548 183.1L483.643 185.76C483.68 185.847 483.712 185.937 483.738 186.03C483.765 186.123 483.788 186.217 483.808 186.31C483.835 186.213 483.863 186.12 483.893 186.03C483.927 185.94 483.962 185.848 483.998 185.755L485.028 183.1C485.055 183.033 485.098 182.978 485.158 182.935C485.222 182.892 485.292 182.87 485.368 182.87H486.358L483.563 189.41Z" fill="#A0A4A8"/>
<path d="M470 166V172" stroke="#D7DBDE"/>
<circle cx="470" cy="97" r="4.5" fill="#A9C1FD" stroke="white" stroke-width="3"/>
</svg>
